<svg width="623" height="819" viewBox="0 0 623 819" fill="none" xmlns="http://www.w3.org/2000/svg">
<path d="M319.574 518.034C319.574 518.034 323.212 536.822 324.894 541.605C326.577 546.388 332.458 552.285 335.822 554.873C339.186 557.461 370.573 581.392 373.937 583.243C376.692 584.928 379.026 587.61 380.665 590.974C380.952 592.072 379.544 604.979 378.173 611.236C376.803 617.493 375.931 620.818 377.613 621.179C379.295 621.539 382.098 618.607 386.011 613.824C389.923 609.041 389.375 602.031 391.057 597.231C392.739 592.432 393.861 589.877 393.861 586.191C393.861 582.506 388.54 581.392 386.011 579.18C383.481 576.969 377.289 569.238 368.641 555.97C359.994 542.702 344.544 539.033 343.722 538.656C342.899 538.28 343.161 520.982 343.161 520.982C343.161 520.982 329.941 523.554 319.574 518.034Z" fill="white"/>
<path opacity="0.27" d="M319.574 518.034C319.574 518.034 323.212 536.822 324.894 541.605C326.577 546.388 332.458 552.285 335.822 554.873C339.186 557.461 370.573 581.392 373.937 583.243C376.692 584.928 379.026 587.61 380.665 590.974C380.952 592.072 379.544 604.979 378.173 611.236C376.803 617.493 375.931 620.818 377.613 621.179C379.295 621.539 382.098 618.607 386.011 613.824C389.923 609.041 389.375 602.031 391.057 597.231C392.739 592.432 393.861 589.877 393.861 586.191C393.861 582.506 388.54 581.392 386.011 579.18C383.481 576.969 377.289 569.238 368.641 555.97C359.994 542.702 344.544 539.033 343.722 538.656C342.899 538.28 343.161 520.982 343.161 520.982C343.161 520.982 329.941 523.554 319.574 518.034Z" fill="black"/>
<path d="M319.574 518.034C319.574 518.034 323.212 536.822 324.894 541.605C326.577 546.388 332.458 552.285 335.822 554.873C339.186 557.461 370.573 581.392 373.937 583.243C376.692 584.928 379.026 587.61 380.665 590.974C380.952 592.072 379.544 604.979 378.173 611.236C376.803 617.493 375.931 620.818 377.613 621.179C379.295 621.539 382.098 618.607 386.011 613.824C389.923 609.041 389.375 602.031 391.057 597.231C392.739 592.432 393.861 589.877 393.861 586.191C393.861 582.506 388.54 581.392 386.011 579.18C383.481 576.969 377.289 569.238 368.641 555.97C359.994 542.702 344.544 539.033 343.722 538.656C342.899 538.28 343.161 520.982 343.161 520.982C343.161 520.982 329.941 523.554 319.574 518.034Z" stroke="#263238" stroke-linecap="round" stroke-linejoin="round"/>
<path d="M385.986 579.18C383.642 576.859 381.449 574.284 379.432 571.482C379.155 576.19 377.721 580.651 375.345 584.193C377.501 585.869 379.325 588.193 380.666 590.974C380.952 592.072 379.544 604.979 378.174 611.236C376.803 617.493 375.931 620.819 377.613 621.179C379.295 621.539 382.098 618.607 386.011 613.824C389.923 609.041 389.375 602.031 391.057 597.231C392.739 592.432 393.861 589.877 393.861 586.191C393.861 582.506 388.515 581.392 385.986 579.18Z" fill="white" stroke="#263238" stroke-linecap="round" stroke-linejoin="round"/>
<path d="M393.836 586.191C393.836 583.341 390.658 582.031 388.054 580.573C388.32 582.367 388.085 584.228 387.394 585.814C386.683 587.337 385.697 588.606 384.523 589.506C383.349 590.406 382.024 590.911 380.665 590.974C380.952 592.071 379.544 604.979 378.173 611.236C376.803 617.493 375.93 620.818 377.613 621.179C379.295 621.539 382.098 618.607 386.011 613.824C389.923 609.041 389.375 602.03 391.057 597.231C392.739 592.432 393.836 589.877 393.836 586.191Z" fill="#F27F3D" stroke="#263238" stroke-linecap="round" stroke-linejoin="round"/>
<path d="M348.992 528.714C348.992 528.714 349.839 546.027 352.082 549.336C354.325 552.645 375.906 570.712 382.347 579.18C388.789 587.649 400.277 599.082 400.564 600.18C401.244 606.279 401.523 612.444 401.399 618.607C401.125 624.504 400.564 631.138 404.763 631.138C408.962 631.138 411.217 627.452 412.613 617.493C414.008 607.534 413.173 603.128 413.173 599.082C413.173 595.036 414.021 588.026 410.931 585.077C409.867 584.001 408.648 583.219 407.349 582.777C406.049 582.335 404.695 582.243 403.367 582.505C401.959 582.866 393.561 575.134 390.197 567.763C386.833 560.392 384.59 548.599 378.709 543.079C372.828 537.559 367.495 532.399 367.495 532.399L365.813 521.703C365.813 521.703 357.128 527.976 348.992 528.714Z" fill="white"/>
<path opacity="0.1" d="M348.992 528.714C348.992 528.714 349.839 546.027 352.082 549.336C354.325 552.645 375.906 570.712 382.348 579.18C388.789 587.649 400.278 599.082 400.564 600.18C401.244 606.279 401.523 612.444 401.399 618.607C401.125 624.504 400.564 631.138 404.763 631.138C408.962 631.138 411.217 627.452 412.613 617.493C414.008 607.534 413.174 603.128 413.174 599.082C413.174 595.036 414.021 588.026 410.931 585.077C409.867 584.001 408.649 583.219 407.349 582.777C406.049 582.335 404.695 582.243 403.368 582.506C401.96 582.866 393.562 575.135 390.197 567.764C386.833 560.393 384.59 548.599 378.709 543.079C372.828 537.559 367.495 532.399 367.495 532.399L365.813 521.703C365.813 521.703 357.129 527.977 348.992 528.714Z" fill="black"/>
<path opacity="0.2" d="M368.617 518.345C368.617 518.345 367.744 526.928 371.657 530.368C375.569 533.808 376.018 538.951 372.529 541.834C369.04 544.717 370.785 550.417 378.186 561.293C385.587 572.17 408.227 592.776 406.919 597.919C405.61 603.062 401.698 605.929 396.477 603.079C391.256 600.229 363.383 562.44 353.378 553.284C343.373 544.127 345.977 522.948 345.977 522.948C345.977 522.948 362.947 529.795 368.617 518.345Z" fill="black"/>
<path d="M348.992 528.714C348.992 528.714 349.839 546.027 352.082 549.336C354.325 552.645 375.906 570.712 382.347 579.18C388.789 587.649 400.277 599.082 400.564 600.18C401.244 606.279 401.523 612.444 401.399 618.607C401.125 624.504 400.564 631.138 404.763 631.138C408.962 631.138 411.217 627.452 412.613 617.493C414.008 607.534 413.173 603.128 413.173 599.082C413.173 595.036 414.021 588.026 410.931 585.077C409.867 584.001 408.648 583.219 407.349 582.777C406.049 582.335 404.695 582.243 403.367 582.505C401.959 582.866 393.561 575.134 390.197 567.763C386.833 560.392 384.59 548.599 378.709 543.079C372.828 537.559 367.495 532.399 367.495 532.399L365.813 521.703C365.813 521.703 357.128 527.976 348.992 528.714Z" stroke="#263238" stroke-linecap="round" stroke-linejoin="round"/>
<path d="M375.507 540.065C371.021 535.823 367.495 532.399 367.495 532.399L367.209 530.565C363.284 534.43 356.493 539.77 349.765 538.673C350.263 543.144 351.011 547.78 352.057 549.336C353.66 551.23 355.368 552.966 357.166 554.528C359.321 554.676 370.959 554.807 375.507 540.065Z" fill="#263238" stroke="#263238" stroke-linecap="round" stroke-linejoin="round"/>
<path d="M410.931 585.077C409.867 584.001 408.648 583.219 407.349 582.777C406.049 582.335 404.695 582.243 403.368 582.506C402.231 582.236 401.163 581.593 400.265 580.638C400.342 584.308 399.348 587.877 397.486 590.614C396.589 591.908 395.779 592.972 395.057 593.89C397.004 595.83 398.844 597.948 400.564 600.229C401.244 606.328 401.523 612.494 401.399 618.656C401.125 624.553 400.564 631.187 404.763 631.187C408.962 631.187 411.217 627.501 412.613 617.542C414.008 607.583 413.174 603.177 413.174 599.131C413.174 595.085 414.021 588.042 410.931 585.077Z" fill="white" stroke="#263238" stroke-linecap="round" stroke-linejoin="round"/>
<path d="M412.613 617.526C414.021 607.583 413.174 603.161 413.174 599.115C413.174 595.069 414.021 588.058 410.931 585.11C409.867 584.034 408.648 583.251 407.349 582.809C406.049 582.368 404.695 582.275 403.368 582.538C403.368 582.538 407.292 584.373 407.853 588.795C408.414 593.218 407.567 599.115 405.05 600.949C404.34 601.472 403.522 601.682 402.715 601.549C401.908 601.416 401.154 600.948 400.564 600.212C401.244 606.312 401.523 612.477 401.399 618.64C401.125 624.537 400.564 631.17 404.763 631.17C408.962 631.17 411.18 627.452 412.613 617.526Z" fill="#F27F3D" stroke="#263238" stroke-linecap="round" stroke-linejoin="round"/>
<path d="M319.126 426.879C319.126 426.879 313.793 444.897 312.896 451.941C311.998 458.984 315.138 465.929 313.456 472.94C311.774 479.95 313.344 515.823 313.344 515.823C313.344 515.823 323.15 524.291 331.561 526.863C339.971 529.434 341.653 526.126 341.653 526.126V530.925C346.203 532.64 350.985 533.014 355.658 532.022C362.387 530.188 373.875 520.982 373.875 520.982C373.875 520.982 365.302 478.099 365.302 472.203C365.302 466.306 365.863 459.672 364.742 450.466C363.62 441.261 358.861 426.142 358.861 426.142C358.861 426.142 335.934 435.348 319.126 426.879Z" fill="#F27F3D"/>
<path opacity="0.2" d="M365.365 472.203C365.365 466.306 365.925 459.672 364.804 450.466C363.682 441.261 358.923 426.142 358.923 426.142C358.923 426.142 342.189 432.841 326.838 429.549L329.455 436.38C329.455 436.38 337.641 443.865 341.915 443.865C346.189 443.865 343.535 433.235 345.154 436.068C346.774 438.902 350.55 447.42 353.241 461.588C355.932 475.757 356.481 483.554 358.088 498.443C359.695 513.333 366.175 523.947 362.947 524.651C359.72 525.356 353.241 516.855 353.241 521.818C353.241 525.094 348.818 528.255 345.977 532.121C349.192 532.832 352.477 532.799 355.683 532.022C362.412 530.188 373.9 520.966 373.9 520.966C373.9 520.966 365.365 478.099 365.365 472.203Z" fill="black"/>
<path opacity="0.2" d="M332.832 527.616C332.832 527.616 333.791 486.666 332.582 491.138C331.374 495.61 328.969 506.683 329.455 500.655C329.941 494.627 334.04 475.921 334.04 475.921C334.04 475.921 338.14 478.46 337.89 484.111C337.641 489.762 342.002 529.156 342.002 529.156V534.856" fill="black"/>
<path d="M319.126 426.879C319.126 426.879 313.793 444.897 312.896 451.941C311.998 458.984 315.138 465.929 313.456 472.94C311.774 479.95 313.344 515.823 313.344 515.823C313.344 515.823 323.15 524.291 331.561 526.863C339.971 529.434 341.653 526.126 341.653 526.126V530.925C346.203 532.64 350.985 533.014 355.658 532.022C362.387 530.188 373.875 520.982 373.875 520.982C373.875 520.982 365.302 478.099 365.302 472.203C365.302 466.306 365.863 459.672 364.742 450.466C363.62 441.261 358.861 426.142 358.861 426.142C358.861 426.142 335.934 435.348 319.126 426.879Z" stroke="#263238" stroke-linecap="round" stroke-linejoin="round"/>
<path d="M366.785 517.608C364.667 512.694 356.406 471.744 357.228 458.64C357.901 448.091 355.185 433.759 353.889 427.747C353.216 427.944 352.481 428.14 351.684 428.337C352.93 434.07 355.633 448.304 354.998 458.394C354.151 471.875 362.362 513.398 364.841 519.082C365.745 521.287 366.459 523.616 366.972 526.027L368.99 524.619C368.443 522.187 367.704 519.837 366.785 517.608Z" fill="#263238"/>
<path d="M365.851 496.871C361.415 483.767 360.057 465.651 360.592 455.724C361.016 447.977 358.686 434.66 357.44 427.518C357.44 427.256 357.353 426.994 357.303 426.732L355.11 427.518C355.11 427.764 355.197 427.993 355.247 428.255C356.493 435.249 358.748 448.288 358.35 455.593C357.801 465.749 360.418 490.253 365.053 503.963C367.184 510.392 368.929 517.03 370.274 523.816L372.292 522.325C370.528 513.681 368.377 505.182 365.851 496.871Z" fill="#263238"/>
<path d="M376.08 373.284L370.411 369.402" stroke="#263238" stroke-linecap="round" stroke-linejoin="round"/>
<path d="M372.367 368.665L367.881 370.876" stroke="#263238" stroke-linecap="round" stroke-linejoin="round"/>
<path d="M350.325 333.792C350.325 333.792 346.027 330.974 340.357 326.601C337.166 324.178 334.095 321.491 331.162 318.558C331.162 318.558 329.044 307.092 325.53 299.426C322.016 291.761 321.044 289.418 321.044 289.418C321.044 289.418 328.657 278.132 331.586 270.45C334.514 262.768 340.17 247.879 343.099 246.077C346.027 244.275 351.821 240.688 353.627 240.688C355.434 240.688 356.119 236.838 357.926 234.791C359.733 232.743 362.212 232.236 362.212 230.434C362.212 228.632 358.474 230.172 358.474 230.172C358.474 230.172 365.103 220.688 365.103 218.378C365.103 216.069 363.147 216.838 363.147 216.838C363.147 216.838 363.147 213.251 362.175 212.989C361.388 212.88 360.593 212.969 359.832 213.251C359.832 213.251 358.076 210.942 357.104 212.481C356.132 214.021 354.96 216.069 354.96 216.069C353.63 216.32 352.398 217.13 351.447 218.378C350.475 220.18 341.691 229.156 340.133 232.743C339.158 235.278 338.687 238.095 338.763 240.933C338.763 240.933 321.991 259.656 316.135 269.664C310.279 279.672 305.793 286.322 305.993 290.172C306.192 294.021 314.964 319.656 318.278 327.846C321.593 336.036 329.405 352.973 329.405 352.973C329.405 352.973 320.621 370.663 319.836 381.949C319.051 393.235 318.278 411.711 317.506 416.347C316.733 420.982 315.35 425.077 316.335 427.387C317.319 429.697 324.907 435.331 329.405 436.363C333.903 437.395 348.095 433.529 353.789 431.449C359.483 429.369 361.203 425.29 361.203 423.751C361.203 422.211 359.247 413.251 359.446 410.941C359.645 408.632 361.789 391.449 365.489 387.338C369.19 383.226 376.03 373.235 376.03 373.235C376.03 373.235 386.559 390.417 392.415 395.806C398.271 401.195 404.315 410.172 407.043 409.402C409.772 408.632 423.241 379.918 426.556 370.417C429.87 360.917 430.842 354.037 432.599 352.203C434.356 350.368 436.897 341.441 437.284 339.639C437.67 337.838 436.112 321.949 436.112 321.949L434.605 321.048L433.047 319.77C433.047 319.77 431.677 320.016 430.892 320.278C430.107 320.54 429.334 334.381 429.334 334.381L425.82 338.231L425.434 329.254C425.434 329.254 423.877 327.715 423.291 328.992C422.705 330.27 423.291 337.723 422.506 340.278C421.762 343.357 421.693 346.65 422.307 349.779C422.707 351 422.972 352.291 423.092 353.611C422.452 357.403 421.113 360.93 419.192 363.882C416.064 368.501 403.193 386.453 403.193 386.453C403.193 386.453 393.823 366.437 391.493 361.572C389.163 356.707 389.338 350.794 384.266 346.945C379.195 343.095 371.981 343.095 371.981 343.095C371.981 343.095 364.505 338.738 360.854 337.199C357.203 335.659 350.325 333.792 350.325 333.792Z" fill="white"/>
<path opacity="0.1" d="M350.325 333.792C350.325 333.792 346.027 330.974 340.357 326.601C337.166 324.178 334.095 321.491 331.162 318.558C331.162 318.558 329.044 307.092 325.53 299.426C322.016 291.761 321.044 289.418 321.044 289.418C321.044 289.418 328.657 278.132 331.586 270.45C334.514 262.768 340.17 247.879 343.099 246.077C346.027 244.275 351.821 240.688 353.627 240.688C355.434 240.688 356.119 236.838 357.926 234.791C359.733 232.743 362.212 232.236 362.212 230.434C362.212 228.632 358.474 230.172 358.474 230.172C358.474 230.172 365.103 220.688 365.103 218.378C365.103 216.069 363.147 216.838 363.147 216.838C363.147 216.838 363.147 213.251 362.175 212.989C361.388 212.88 360.593 212.969 359.832 213.251C359.832 213.251 358.076 210.942 357.104 212.481C356.132 214.021 354.96 216.069 354.96 216.069C353.63 216.32 352.398 217.13 351.447 218.378C350.475 220.18 341.691 229.156 340.133 232.743C339.158 235.278 338.687 238.095 338.763 240.933C338.763 240.933 321.991 259.656 316.135 269.664C310.279 279.672 305.793 286.322 305.993 290.172C306.192 294.021 314.964 319.656 318.278 327.846C321.593 336.036 329.405 352.973 329.405 352.973C329.405 352.973 320.621 370.663 319.836 381.949C319.051 393.235 318.278 411.711 317.506 416.347C316.733 420.982 315.35 425.077 316.335 427.387C317.319 429.697 324.907 435.331 329.405 436.363C333.903 437.395 348.095 433.529 353.789 431.449C359.483 429.369 361.203 425.29 361.203 423.751C361.203 422.211 359.247 413.251 359.446 410.941C359.645 408.632 361.789 391.449 365.489 387.338C369.19 383.226 376.03 373.235 376.03 373.235C376.03 373.235 386.559 390.417 392.415 395.806C398.271 401.195 404.315 410.172 407.043 409.402C409.772 408.632 423.241 379.918 426.556 370.417C429.87 360.917 430.842 354.037 432.599 352.203C434.356 350.368 436.897 341.441 437.284 339.639C437.67 337.838 436.112 321.949 436.112 321.949L434.605 321.048L433.047 319.77C433.047 319.77 431.677 320.016 430.892 320.278C430.107 320.54 429.334 334.381 429.334 334.381L425.82 338.231L425.434 329.254C425.434 329.254 423.877 327.715 423.291 328.992C422.705 330.27 423.291 337.723 422.506 340.278C421.762 343.357 421.693 346.65 422.307 349.779C422.707 351 422.972 352.291 423.092 353.611C422.452 357.403 421.113 360.93 419.192 363.882C416.064 368.501 403.193 386.453 403.193 386.453C403.193 386.453 393.823 366.437 391.493 361.572C389.163 356.707 389.338 350.794 384.266 346.945C379.195 343.095 371.981 343.095 371.981 343.095C371.981 343.095 364.505 338.738 360.854 337.199C357.203 335.659 350.325 333.792 350.325 333.792Z" fill="black"/>
<path opacity="0.2" d="M328.52 237.772C328.52 237.772 344.544 243.702 345.603 243.702C346.849 243.702 337.541 246.666 332.383 257.264C327.224 267.862 320.459 282.686 317.879 286.928C315.3 291.171 321.43 293.284 325.941 287.78C330.452 282.277 339.473 252.596 343.024 249.631C346.575 246.666 352.369 244.128 356.568 240.311C360.903 236.098 364.252 230.373 366.237 223.784C368.168 217.428 359.147 207.256 359.147 207.256C359.147 207.256 343.672 237.346 328.52 237.772Z" fill="black"/>
<path opacity="0.2" d="M310.142 308.96C310.142 308.96 307.239 289.467 311.388 297.1C315.537 304.733 321.069 328.468 325.58 334.774C330.09 341.081 331.062 337.739 331.062 337.739L330.09 357.231C330.09 357.231 313.369 329.238 310.142 308.96Z" fill="black"/>
<path opacity="0.2" d="M350.126 374.283C350.126 374.283 357.814 375.102 362.798 368.009C367.782 360.917 372.342 358.722 376.292 362.817C380.242 366.912 396.639 393.398 402.246 398.034C407.853 402.67 411.803 394.217 413.884 390.385C415.965 386.552 425.92 366.093 427.789 361.72C429.266 358.441 430.889 355.28 432.649 352.252C432.649 352.252 427.166 378.656 421.983 389.025C416.799 399.394 411.392 410.86 407.853 411.957C404.315 413.054 392.278 406.502 387.095 397.756C381.911 389.009 377.127 380.294 374.635 381.654C372.143 383.014 369.227 388.484 365.913 388.484C362.598 388.484 352.618 386.29 350.126 374.283Z" fill="black"/>
<path d="M350.325 333.792C350.325 333.792 346.027 330.974 340.357 326.601C337.166 324.178 334.095 321.491 331.162 318.558C331.162 318.558 329.044 307.092 325.53 299.426C322.016 291.761 321.044 289.418 321.044 289.418C321.044 289.418 328.657 278.132 331.586 270.45C334.514 262.768 340.17 247.879 343.099 246.077C346.027 244.275 351.821 240.688 353.627 240.688C355.434 240.688 356.119 236.838 357.926 234.791C359.733 232.743 362.212 232.236 362.212 230.434C362.212 228.632 358.474 230.172 358.474 230.172C358.474 230.172 365.103 220.688 365.103 218.378C365.103 216.069 363.147 216.838 363.147 216.838C363.147 216.838 363.147 213.251 362.175 212.989C361.388 212.88 360.593 212.969 359.832 213.251C359.832 213.251 358.075 210.942 357.104 212.481C356.132 214.021 354.96 216.069 354.96 216.069C353.63 216.32 352.398 217.13 351.447 218.378C350.475 220.18 341.691 229.156 340.133 232.743C339.158 235.278 338.687 238.095 338.763 240.933C338.763 240.933 321.991 259.656 316.135 269.664C310.279 279.672 305.793 286.322 305.993 290.172C306.192 294.021 314.964 319.656 318.278 327.846C321.593 336.036 329.405 352.973 329.405 352.973C329.405 352.973 320.621 370.663 319.836 381.949C319.051 393.235 318.278 411.711 317.506 416.347C316.733 420.982 315.35 425.077 316.335 427.387C317.319 429.697 324.907 435.331 329.405 436.363C333.903 437.395 348.095 433.529 353.789 431.449C359.483 429.369 361.203 425.29 361.203 423.751C361.203 422.211 359.247 413.251 359.446 410.941C359.645 408.632 361.789 391.449 365.489 387.338C369.19 383.226 376.03 373.235 376.03 373.235C376.03 373.235 386.559 390.417 392.415 395.806C398.271 401.195 404.315 410.172 407.043 409.402C409.772 408.632 423.241 379.918 426.556 370.417C429.87 360.917 430.842 354.037 432.599 352.203C434.356 350.368 436.897 341.441 437.284 339.639C437.67 337.838 436.112 321.949 436.112 321.949L434.605 321.048L433.047 319.77C433.047 319.77 431.677 320.016 430.892 320.278C430.107 320.54 429.334 334.381 429.334 334.381L425.82 338.231L425.434 329.254C425.434 329.254 423.877 327.715 423.291 328.992C422.705 330.27 423.291 337.723 422.506 340.278C421.762 343.357 421.693 346.65 422.307 349.779C422.707 351 422.972 352.291 423.092 353.611C422.452 357.403 421.113 360.93 419.192 363.882C416.064 368.501 403.193 386.453 403.193 386.453C403.193 386.453 393.823 366.437 391.493 361.572C389.163 356.707 389.338 350.794 384.266 346.945C379.195 343.095 371.981 343.095 371.981 343.095C371.981 343.095 364.505 338.738 360.854 337.199C357.203 335.659 350.325 333.792 350.325 333.792Z" stroke="#263238" stroke-linecap="round" stroke-linejoin="round"/>
<path d="M353.316 360.933C358.374 351.679 367.744 345.143 371.545 342.768C369.937 341.834 364.069 338.444 360.854 337.117C357.116 335.577 350.325 333.841 350.325 333.841C350.325 333.841 348.543 332.661 345.765 330.663C335.797 336.429 329.455 353.071 329.455 353.071C329.455 353.071 320.67 370.761 319.885 382.047C319.1 393.333 318.328 411.81 317.555 416.445C316.783 421.081 315.4 425.176 316.384 427.485C317.369 429.795 324.957 435.429 329.455 436.461C333.953 437.493 348.145 433.628 353.839 431.547C359.533 429.467 361.253 425.389 361.253 423.849C361.253 422.309 359.296 413.349 359.496 411.04C359.695 408.73 361.838 391.547 365.539 387.436C366.025 386.896 366.561 386.257 367.134 385.569C357.166 386.879 347.136 372.219 353.316 360.933Z" fill="#F27F3D"/>
<path opacity="0.2" d="M365.539 387.387C366.025 386.846 366.561 386.208 367.134 385.52C364.082 385.785 361.041 384.832 358.409 382.786C355.776 380.74 353.675 377.696 352.381 374.054L350.126 374.217C350.126 374.217 332.308 370.368 337.13 374.84C341.952 379.312 347.883 383.57 350.039 392.858C352.194 402.145 332.794 385.765 337.641 394.971C342.488 404.176 351.659 406.306 352.743 415.528C353.827 424.75 347.883 429.697 336.545 431.826C331.529 432.524 326.478 432.672 321.443 432.268C323.939 434.143 326.629 435.528 329.43 436.38C333.916 437.395 348.12 433.546 353.814 431.466C359.508 429.385 361.228 425.307 361.228 423.767C361.228 422.227 359.272 413.267 359.471 410.958C359.67 408.648 361.838 391.482 365.539 387.387Z" fill="black"/>
<path d="M353.316 360.933C358.374 351.679 367.744 345.143 371.545 342.768C369.937 341.834 364.069 338.444 360.854 337.117C357.116 335.577 350.325 333.841 350.325 333.841C350.325 333.841 348.543 332.661 345.765 330.663C335.797 336.429 329.455 353.071 329.455 353.071C329.455 353.071 320.67 370.761 319.885 382.047C319.1 393.333 318.328 411.81 317.555 416.445C316.783 421.081 315.4 425.176 316.384 427.485C317.369 429.795 324.957 435.429 329.455 436.461C333.953 437.493 348.145 433.628 353.839 431.547C359.533 429.467 361.253 425.389 361.253 423.849C361.253 422.309 359.296 413.349 359.496 411.04C359.695 408.73 361.838 391.547 365.539 387.436C366.025 386.896 366.561 386.257 367.134 385.569C357.166 386.879 347.136 372.219 353.316 360.933Z" stroke="#263238" stroke-linecap="round" stroke-linejoin="round"/>
<path d="M329.455 353.022L330.888 333.3" stroke="#263238" stroke-linecap="round" stroke-linejoin="round"/>
<path d="M436.162 321.998C435.718 322.46 435.37 323.064 435.152 323.752C434.934 324.439 434.853 325.189 434.916 325.929C434.916 328.878 435.203 336.625 435.203 336.625" stroke="#263238" stroke-linecap="round" stroke-linejoin="round"/>
<path d="M434.256 321.048C433.698 321.846 433.345 322.855 433.247 323.931V335.397" stroke="#263238" stroke-linecap="round" stroke-linejoin="round"/>
<path d="M432.661 320.114C432.114 321.349 431.738 322.703 431.552 324.111C431.477 325.749 431.054 334.545 431.054 334.545" stroke="#263238" stroke-linecap="round" stroke-linejoin="round"/>
<path d="M430.119 334.545L435.95 337.543" stroke="#263238" stroke-linecap="round" stroke-linejoin="round"/>
<path d="M428.101 352.743C427.957 351.372 428.012 349.977 428.263 348.632C429.184 346.717 430.29 344.966 431.552 343.423" stroke="#263238" stroke-linecap="round" stroke-linejoin="round"/>
<path d="M358.524 230.172L354.338 232.727C354.338 232.727 347.422 230.761 345.192 236.167" stroke="#263238" stroke-linecap="round" stroke-linejoin="round"/>
<path d="M363.196 216.838L355.085 228.304" stroke="#263238" stroke-linecap="round" stroke-linejoin="round"/>
<path d="M359.882 213.251L351.347 226.585" stroke="#263238" stroke-linecap="round" stroke-linejoin="round"/>
<path d="M355.01 216.069L347.983 225.847" stroke="#263238" stroke-linecap="round" stroke-linejoin="round"/>
<path d="M347.235 225.847L356.767 229.042" stroke="#263238" stroke-linecap="round" stroke-linejoin="round"/>
<path d="M376.08 373.284L370.411 369.402" stroke="#263238" stroke-linecap="round" stroke-linejoin="round"/>
<path d="M372.367 368.665L367.881 370.876" stroke="#263238" stroke-linecap="round" stroke-linejoin="round"/>
<path d="M341.715 526.126L336.495 474.414" stroke="#263238" stroke-linecap="round" stroke-linejoin="round"/>
<path d="M336.221 478.46L325.854 467.043" stroke="#263238" stroke-linecap="round" stroke-linejoin="round"/>
<path d="M336.781 481.048L329.218 478.099" stroke="#263238" stroke-linecap="round" stroke-linejoin="round"/>
<path d="M330.389 408.501L327.773 408.091C323.312 407.403 320.808 401.392 322.191 394.889L323.437 389.074C323.619 388.117 324.05 387.273 324.655 386.69C325.26 386.107 326.002 385.82 326.751 385.88C327.087 385.965 327.405 386.144 327.683 386.406C327.961 386.667 328.193 387.005 328.363 387.396C328.532 387.787 328.635 388.221 328.664 388.669C328.694 389.117 328.649 389.568 328.533 389.991L327.374 395.774C327.232 396.231 327.171 396.724 327.195 397.217C327.219 397.71 327.327 398.189 327.511 398.619C327.696 399.049 327.952 399.419 328.26 399.7C328.569 399.982 328.922 400.168 329.293 400.245L331.86 400.671C332.651 400.709 333.427 400.373 334.046 399.724C334.666 399.075 335.088 398.156 335.236 397.133L337.392 385.127C337.478 384.775 337.507 384.403 337.476 384.036C337.445 383.668 337.356 383.314 337.213 382.995C337.071 382.677 336.879 382.401 336.65 382.187C336.421 381.973 336.16 381.825 335.884 381.752L328.408 380.278C328.081 380.199 327.771 380.028 327.5 379.776C327.228 379.524 327.002 379.197 326.836 378.818C326.67 378.44 326.568 378.018 326.539 377.583C326.509 377.148 326.552 376.709 326.664 376.298L329.355 363.587C329.528 362.738 329.928 362 330.482 361.509C331.037 361.018 331.707 360.808 332.37 360.917L343.896 363.636C344.197 363.716 344.483 363.876 344.735 364.108C344.987 364.339 345.201 364.636 345.362 364.98C345.523 365.324 345.629 365.708 345.672 366.108C345.716 366.508 345.697 366.915 345.615 367.305C345.494 368.141 345.136 368.885 344.613 369.386C344.09 369.888 343.442 370.11 342.8 370.008L333.492 367.96L332.246 373.939L337.13 374.971C340.868 375.741 343.086 380.688 342.177 386.126L340.158 398.034C339.136 404.373 334.738 409.156 330.389 408.501Z" fill="#263238"/>
<path d="M371.657 317.215C371.657 317.215 378.099 310.663 378.099 301.474C378.099 292.285 370.947 282.195 364.156 281.965C361.828 281.831 359.508 282.396 357.37 283.617C355.233 284.837 353.335 286.681 351.821 289.009C350.388 291.367 349.503 292.53 349.503 293.71C349.503 294.889 349.852 296.527 349.316 297.231C348.78 297.936 346.276 299.59 345.927 302.145C345.578 304.701 345.204 306.846 345.03 308.255C344.855 309.664 342.7 319.295 342.887 321.883C343.074 324.471 348.419 328.222 348.419 328.222C348.904 329.09 349.223 330.098 349.349 331.161C349.474 332.225 349.403 333.312 349.142 334.332C348.245 337.854 344.855 342.326 346.65 343.489C348.444 344.652 360.767 342.326 363.458 341.851C366.15 341.376 364.53 339.263 364.53 336.216C364.53 333.169 361.826 324.733 371.657 317.215Z" fill="white"/>
<path opacity="0.1" d="M371.657 317.215C371.657 317.215 378.098 310.663 378.098 301.474C378.098 292.285 370.946 282.195 364.156 281.965C361.828 281.831 359.507 282.396 357.37 283.617C355.233 284.837 353.335 286.681 351.82 289.009C350.387 291.367 349.503 292.53 349.503 293.71C349.503 294.889 349.852 296.527 349.316 297.231C348.78 297.936 346.276 299.59 345.927 302.145C345.578 304.701 345.204 306.846 345.03 308.255C344.855 309.664 342.7 319.295 342.886 321.883C343.073 324.471 348.419 328.222 348.419 328.222C348.904 329.09 349.222 330.098 349.348 331.161C349.474 332.225 349.403 333.312 349.141 334.332C348.244 337.854 344.855 342.326 346.649 343.489C348.444 344.652 360.767 342.326 363.458 341.851C366.149 341.376 364.529 339.263 364.529 336.216C364.529 333.169 361.826 324.733 371.657 317.215Z" fill="black"/>
<path opacity="0.2" d="M374.423 285.553C374.423 285.553 377.326 295.659 375.046 301.114C372.766 306.568 367.57 306.846 364.243 310.679C360.916 314.512 356.568 321.326 352.406 322.145C348.244 322.964 341.815 320.507 342.862 323.783C343.908 327.059 349.092 327.878 348.88 330.597C348.668 333.317 341.192 343.701 344.307 344.799C347.422 345.896 364.044 345.077 365.701 342.063C367.358 339.05 365.913 328.697 367.159 326.24C368.405 323.783 380.441 312.317 380.03 303.571C379.619 294.824 377.949 288.829 374.423 285.553Z" fill="black"/>
<path d="M371.657 317.215C371.657 317.215 378.099 310.663 378.099 301.474C378.099 292.285 370.947 282.195 364.156 281.965C361.828 281.831 359.508 282.396 357.37 283.617C355.233 284.837 353.335 286.681 351.821 289.009C350.388 291.367 349.503 292.53 349.503 293.71C349.503 294.889 349.852 296.527 349.316 297.231C348.78 297.936 346.276 299.59 345.927 302.145C345.578 304.701 345.204 306.846 345.03 308.255C344.855 309.664 342.7 319.295 342.887 321.883C343.074 324.471 348.419 328.222 348.419 328.222C348.904 329.09 349.223 330.098 349.349 331.161C349.474 332.225 349.403 333.312 349.142 334.332C348.245 337.854 344.855 342.326 346.65 343.489C348.444 344.652 360.767 342.326 363.458 341.851C366.15 341.376 364.53 339.263 364.53 336.216C364.53 333.169 361.826 324.733 371.657 317.215Z" stroke="#263238" stroke-linecap="round" stroke-linejoin="round"/>
<path d="M367.682 310.368C367.682 310.368 371.969 306.371 372.33 310.598C372.479 312.288 372.192 313.996 371.514 315.445C370.836 316.895 369.807 318.003 368.592 318.591C366.636 319.525 365.739 316.232 365.739 316.232" stroke="#263238" stroke-linecap="round" stroke-linejoin="round"/>
<path d="M349.677 304.996L348.606 304.046C348.606 304.046 347.883 301.228 349.503 300.065C350.814 298.935 352.011 297.592 353.066 296.068C353.428 295.364 351.285 292.301 350.749 293.251" stroke="#263238" stroke-linecap="round" stroke-linejoin="round"/>
<path d="M350.388 304.046C350.967 304.63 351.641 305.033 352.356 305.225C352.497 305.255 352.641 305.249 352.78 305.206C352.919 305.163 353.05 305.085 353.166 304.975C353.281 304.866 353.38 304.727 353.454 304.568C353.529 304.408 353.58 304.231 353.602 304.046" stroke="#263238" stroke-linecap="round" stroke-linejoin="round"/>
<path d="M349.142 308.042C349.142 308.042 350.575 309.451 355.035 307.813" stroke="#263238" stroke-linecap="round" stroke-linejoin="round"/>
<path d="M359.296 296.085C359.072 297.084 358.586 297.723 358.212 297.625C357.839 297.526 357.702 296.56 357.926 295.561C358.15 294.562 358.636 293.923 359.022 294.021C359.409 294.119 359.521 295.102 359.296 296.085Z" fill="#263238"/>
<path d="M351.459 296.298C351.247 297.297 350.749 297.936 350.375 297.838C350.001 297.739 349.864 296.773 350.089 295.774C350.313 294.774 350.799 294.136 351.185 294.234C351.571 294.332 351.683 295.299 351.459 296.298Z" fill="#263238"/>
<path d="M356.107 293.48C356.107 293.48 359.845 289.713 363.084 293.955" stroke="#263238" stroke-linecap="round" stroke-linejoin="round"/>
<path d="M346.102 325.209C346.102 325.209 353.789 327.322 356.468 326.142C357.772 325.629 359.026 324.92 360.206 324.029" stroke="#263238" stroke-linecap="round" stroke-linejoin="round"/>
<path d="M338.052 239.672C349.262 239.672 358.35 227.726 358.35 212.989C358.35 198.253 349.262 186.306 338.052 186.306C326.842 186.306 317.755 198.253 317.755 212.989C317.755 227.726 326.842 239.672 338.052 239.672Z" fill="#F27F3D"/>
<path opacity="0.2" d="M349.216 190.729C350.154 193.824 350.636 197.126 350.637 200.458C350.645 205.28 349.658 210.014 347.782 214.156C345.905 218.299 343.21 221.695 339.982 223.984C336.754 226.273 333.115 227.369 329.451 227.155C325.787 226.94 322.236 225.424 319.175 222.768C320.34 226.672 322.188 230.159 324.57 232.948C326.952 235.736 329.801 237.747 332.885 238.817C335.968 239.887 339.201 239.986 342.319 239.105C345.438 238.225 348.354 236.39 350.832 233.75C353.31 231.11 355.28 227.739 356.581 223.911C357.882 220.082 358.478 215.905 358.32 211.717C358.163 207.529 357.257 203.449 355.675 199.808C354.093 196.167 351.88 193.068 349.216 190.761V190.729Z" fill="black"/>
<path d="M338.052 239.672C349.262 239.672 358.35 227.726 358.35 212.989C358.35 198.253 349.262 186.306 338.052 186.306C326.842 186.306 317.755 198.253 317.755 212.989C317.755 227.726 326.842 239.672 338.052 239.672Z" stroke="#263238" stroke-linecap="round" stroke-linejoin="round"/>
<path d="M354.45 228.681C354.74 226.755 354.886 224.797 354.886 222.834C354.882 217.885 353.958 213.013 352.194 208.642C350.43 204.271 347.88 200.533 344.766 197.753C341.652 194.974 338.068 193.238 334.326 192.696C330.585 192.154 326.799 192.822 323.3 194.644" stroke="#263238" stroke-linecap="round" stroke-linejoin="round"/>
<path d="M322.004 229.14C332.857 237.33 347.547 230.467 354.824 213.825C355.971 211.194 356.89 208.403 357.565 205.503" stroke="#263238" stroke-linecap="round" stroke-linejoin="round"/>
<path d="M318.129 216.363C322.141 219.214 326.776 219.132 332.009 218.804C336.283 218.558 351.16 213.71 352.381 223.194C353.079 228.485 347.821 234.856 342.488 238.902" stroke="#263238" stroke-linecap="round" stroke-linejoin="round"/>
<path d="M338.052 186.306C340.374 186.443 342.634 187.337 344.629 188.907C346.623 190.476 348.289 192.673 349.478 195.299C352.045 200.524 354.225 210.254 357.939 216.789" stroke="#263238" stroke-linecap="round" stroke-linejoin="round"/>
<path d="M275.129 381.752C271.792 378.062 267.734 375.678 263.417 374.873C260.825 374.299 260.364 371.597 258.034 371.269C250.558 369.959 242.571 372.58 238.372 384.373C234.173 396.167 238.871 408.828 246.758 412.301C251.43 414.365 261.909 415.348 261.909 415.348L275.129 381.752Z" fill="white" stroke="#263238" stroke-linecap="round" stroke-linejoin="round"/>
<path d="M258.769 390.45C255.804 386.552 261.722 385.995 260.875 384.324C260.028 382.653 256.227 382.686 253.686 382.686C251.879 382.686 252.215 380.72 253.312 378.001L253.686 377.674C254.2 376.687 254.618 375.619 254.932 374.496L255.019 374.332C255.196 373.997 255.283 373.593 255.268 373.186C255.665 371.386 255.867 369.522 255.866 367.649C255.866 361.523 244.428 362.637 244.004 366.011L243.58 369.287C243.58 369.287 238.086 373.186 237.238 378.198C236.565 382.178 238.833 381.589 239.793 381.179C239.283 382.194 238.829 383.256 238.434 384.357C234.248 396.134 238.933 408.812 246.82 412.285C251.493 414.348 261.971 415.331 261.971 415.331L267.853 400.376C265.934 397.084 261.286 393.759 258.769 390.45Z" fill="#263238" stroke="#263238" stroke-linecap="round" stroke-linejoin="round"/>
<path d="M258.682 387.42C258.682 387.42 256.751 385.241 255.143 389.172C253.536 393.104 261.585 394.398 264.164 393.972C266.744 393.546 263.517 389.172 263.517 389.172" fill="white"/>
<path d="M258.682 387.42C258.682 387.42 256.751 385.241 255.143 389.172C253.536 393.104 261.585 394.398 264.164 393.972C266.744 393.546 263.517 389.172 263.517 389.172" stroke="#263238" stroke-linecap="round" stroke-linejoin="round"/>
<path d="M256.813 597.362L253.773 606.699C253.773 606.699 242.733 613.054 237.488 626.879C232.242 640.704 223.694 654.889 219.283 661.621C214.873 668.353 213.764 670.204 214.038 676.183C214.312 682.161 219.832 684.029 224.255 691.875C225.501 694.184 227.283 700.458 233.911 705.699C237.649 708.632 239.145 706.437 238.895 699.721C238.646 693.005 233.376 682.899 232.553 675.429C231.731 667.96 230.348 666.846 232.553 664.225C234.759 661.605 255.43 636.576 262.607 625.716C269.784 614.856 273.086 599.934 273.086 599.934C273.086 599.934 262.607 601.146 256.813 597.362Z" fill="white"/>
<path opacity="0.1" d="M256.813 597.362L253.773 606.699C253.773 606.699 242.733 613.054 237.488 626.879C232.242 640.704 223.694 654.889 219.283 661.621C214.873 668.353 213.764 670.204 214.038 676.183C214.312 682.161 219.832 684.029 224.255 691.875C225.501 694.184 227.283 700.458 233.911 705.699C237.649 708.632 239.145 706.437 238.895 699.721C238.646 693.005 233.376 682.899 232.553 675.429C231.731 667.96 230.348 666.846 232.553 664.225C234.759 661.605 255.43 636.576 262.607 625.716C269.784 614.856 273.086 599.934 273.086 599.934C273.086 599.934 262.607 601.146 256.813 597.362Z" fill="black"/>
<path d="M256.813 597.362L253.773 606.699C253.773 606.699 242.733 613.054 237.488 626.879C232.242 640.704 223.694 654.889 219.283 661.621C214.873 668.353 213.764 670.204 214.038 676.183C214.312 682.161 219.832 684.029 224.255 691.875C225.501 694.184 227.283 700.458 233.911 705.699C237.649 708.632 239.145 706.437 238.895 699.721C238.646 693.005 233.376 682.899 232.553 675.429C231.731 667.96 230.348 666.846 232.553 664.225C234.759 661.605 255.43 636.576 262.607 625.716C269.784 614.856 273.086 599.934 273.086 599.934C273.086 599.934 262.607 601.146 256.813 597.362Z" stroke="#263238" stroke-linecap="round" stroke-linejoin="round"/>
<path d="M262.607 602.211L259.293 612.612C253.237 616.768 247.427 621.515 241.911 626.814C234.435 634.283 225.077 652.203 221.489 656.691C217.9 661.179 211.035 664.995 211.035 664.995C211.035 664.995 201.653 667.239 200.83 672.465C200.008 677.69 199.995 694.512 201.379 699.737C202.762 704.962 211.87 718.41 214.623 718.41C217.377 718.41 217.938 715.429 217.938 712.808C217.938 710.188 216.555 700.114 216.555 696.003C216.555 691.891 218.212 676.953 218.212 676.953C218.212 676.953 240.254 658.935 249.362 649.975C258.47 641.015 272.874 633.906 276.126 629.483C279.378 625.061 284.399 602.211 284.399 602.211C284.399 602.211 287.153 589.516 286.891 587.272C286.63 585.028 273.372 582.358 268.962 583.538C264.551 584.717 262.607 602.211 262.607 602.211Z" fill="white"/>
<path d="M257.585 635.675C252.365 643.685 216.667 672.301 207.521 678.034C202.475 681.195 201.54 693.611 203.409 704.487C206.637 710.548 212.505 718.476 214.623 718.476C217.377 718.476 217.938 715.495 217.938 712.874C217.938 710.253 216.555 700.18 216.555 696.068C216.555 691.957 218.212 677.018 218.212 677.018C218.212 677.018 240.254 659 249.362 650.04C258.47 641.08 272.874 633.906 276.126 629.483C279.378 625.061 284.399 602.211 284.399 602.211C284.399 602.211 287.153 589.516 286.891 587.272C286.891 586.928 286.493 586.568 285.895 586.207L280.674 586.453C280.674 586.453 262.819 627.665 257.585 635.675Z" fill="#F27F3D"/>
<path opacity="0.5" d="M257.585 635.675C252.365 643.685 216.667 672.301 207.521 678.034C202.475 681.195 201.54 693.611 203.409 704.487C206.637 710.548 212.505 718.476 214.623 718.476C217.377 718.476 217.938 715.495 217.938 712.874C217.938 710.253 216.555 700.18 216.555 696.068C216.555 691.957 218.212 677.018 218.212 677.018C218.212 677.018 240.254 659 249.362 650.04C258.47 641.08 272.874 633.906 276.126 629.483C279.378 625.061 284.399 602.211 284.399 602.211C284.399 602.211 287.153 589.516 286.891 587.272C286.891 586.928 286.493 586.568 285.895 586.207L280.674 586.453C280.674 586.453 262.819 627.665 257.585 635.675Z" fill="white"/>
<path d="M262.607 602.211L259.293 612.612C253.237 616.768 247.427 621.515 241.911 626.814C234.435 634.283 225.077 652.203 221.489 656.691C217.9 661.179 211.035 664.995 211.035 664.995C211.035 664.995 201.653 667.239 200.83 672.465C200.008 677.69 199.995 694.512 201.379 699.737C202.762 704.962 211.87 718.41 214.623 718.41C217.377 718.41 217.938 715.429 217.938 712.808C217.938 710.188 216.555 700.114 216.555 696.003C216.555 691.891 218.212 676.953 218.212 676.953C218.212 676.953 240.254 658.935 249.362 649.975C258.47 641.015 272.874 633.906 276.126 629.483C279.378 625.061 284.399 602.211 284.399 602.211C284.399 602.211 287.153 589.516 286.891 587.272C286.63 585.028 273.372 582.358 268.962 583.538C264.551 584.717 262.607 602.211 262.607 602.211Z" stroke="#263238" stroke-linecap="round" stroke-linejoin="round"/>
<path d="M268.949 583.537C264.538 584.651 262.607 602.211 262.607 602.211L259.293 612.612C259.293 612.612 256.514 614.496 252.788 617.362C251.742 621.424 251.293 626.764 254.034 631.285C256.29 634.971 260.165 637.28 263.853 638.722C269.435 634.954 274.344 631.809 276.114 629.418C279.415 624.946 284.387 602.145 284.387 602.145C284.387 602.145 287.141 589.451 286.879 587.207C286.617 584.963 273.36 582.424 268.949 583.537Z" fill="#263238" stroke="#263238" stroke-linecap="round" stroke-linejoin="round"/>
<path d="M267.566 497.624C267.566 497.624 261.224 514.43 259.841 522.276C258.458 530.122 260.115 543.947 261.498 548.796C262.881 553.644 262.32 557.755 261.224 564.111C260.127 570.466 251.841 596.986 251.841 596.986C251.841 596.986 260.115 605.945 264.301 607.452C268.488 608.959 272.849 610.057 272.849 610.057L279.752 599.606L277.821 611.547C277.821 611.547 287.789 614.168 289.134 614.168H293.271C299.015 579.23 307.376 546.06 302.927 509.942C302.367 505.47 302.093 502.85 302.093 502.85C302.093 502.85 291.888 506.208 284.985 503.587C278.082 500.966 267.566 497.624 267.566 497.624Z" fill="#F27F3D"/>
<path d="M284.948 503.587C283.029 502.866 280.823 502.08 278.63 501.326C277.297 506.584 274.818 517.706 275.852 525.257C277.222 535.348 278.344 556.642 275.291 567.108C273.073 574.758 265.821 595.642 262.096 606.273C262.787 606.76 263.513 607.155 264.264 607.452C268.401 608.943 272.812 610.057 272.812 610.057L279.714 599.606L277.783 611.547C277.783 611.547 284.96 613.447 287.95 614.004C289.196 604.717 291.115 590.515 291.302 589.434C291.576 587.944 291.302 592.792 292.399 583.456C293.495 574.119 292.959 541.244 292.959 531.154C292.959 522.669 295.688 508.37 296.56 504.045C292.702 504.856 288.762 504.701 284.948 503.587Z" fill="white" stroke="#263238" stroke-linecap="round" stroke-linejoin="round"/>
<path opacity="0.2" d="M269.136 500.409C269.136 500.409 275.989 512.694 280.973 516.789C285.957 520.884 269.136 511.056 275.366 520.884C281.596 530.712 290.318 571.662 290.318 584.766C290.318 597.87 280.038 576.576 280.35 581.49C280.661 586.404 273.995 601.146 266.644 606.879L262.906 614.25L293.433 622.44C293.433 622.44 297.794 588.042 301.532 575.757C305.27 563.472 308.385 518.427 306.516 511.875C304.647 505.323 302.055 502.85 302.055 502.85C302.055 502.85 279.727 503.685 269.136 500.409Z" fill="black"/>
<path d="M267.566 497.624C267.566 497.624 261.224 514.43 259.841 522.276C258.458 530.122 260.115 543.947 261.498 548.796C262.881 553.644 262.32 557.755 261.224 564.111C260.127 570.466 251.841 596.986 251.841 596.986C251.841 596.986 260.115 605.945 264.301 607.452C268.488 608.959 272.849 610.057 272.849 610.057L279.752 599.606L277.821 611.547C277.821 611.547 287.789 614.168 289.134 614.168H293.271C299.015 579.23 307.376 546.06 302.927 509.942C302.367 505.47 302.093 502.85 302.093 502.85C302.093 502.85 291.888 506.208 284.985 503.587C278.082 500.966 267.566 497.624 267.566 497.624Z" stroke="#263238" stroke-linecap="round" stroke-linejoin="round"/>
<path d="M297.37 434.398C301.14 437.132 304.773 440.179 308.248 443.521C308.248 443.521 310.852 434.398 312.534 427.141C314.216 419.885 316.546 409.123 316.546 409.123C316.546 409.123 313.955 403.341 312.148 401.932C310.341 400.524 308.771 395.79 307.862 393.857C306.952 391.924 309.419 391.58 309.419 391.58C309.419 391.58 307.214 385.438 306.703 383.161C306.192 380.884 307.475 379.475 308.123 380.524C308.85 382.106 309.499 383.747 310.067 385.438C310.898 387.029 311.855 388.5 312.92 389.828C312.92 389.828 311.238 384.733 310.852 383.161C310.466 381.588 309.606 378.771 310.329 378.771C311.051 378.771 312.272 380.409 312.92 381.932C313.568 383.456 316.422 389.303 316.422 389.303L314.216 382.276C314.216 382.276 314.092 380 315.126 380.524C316.16 381.048 317.979 387.715 317.979 387.715C317.979 387.715 317.331 381.588 318.228 381.752C319.125 381.916 318.752 385.028 319.275 386.846C319.798 388.665 320.521 394.742 321.343 397.199C321.989 399.615 322.252 402.179 322.116 404.733C321.991 405.962 321.73 410.532 321.73 410.532C321.73 410.532 321.468 438.607 320.695 445.978C319.923 453.349 316.683 461.769 315.512 464.75C315.045 465.877 314.314 466.776 313.427 467.313C312.54 467.85 311.546 467.997 310.59 467.731C309.344 467.387 303.114 464.045 303.114 464.045C302.868 457.964 301.591 452.032 299.376 446.683C295.751 438.247 294.193 432.465 294.966 432.809C295.789 433.279 296.592 433.81 297.37 434.398Z" fill="white"/>
<path d="M297.37 434.398C301.14 437.132 304.773 440.179 308.248 443.521C308.248 443.521 310.852 434.398 312.534 427.141C314.216 419.885 316.546 409.123 316.546 409.123C316.546 409.123 313.955 403.341 312.148 401.932C310.341 400.524 308.771 395.79 307.862 393.857C306.952 391.924 309.419 391.58 309.419 391.58C309.419 391.58 307.214 385.438 306.703 383.161C306.192 380.884 307.475 379.475 308.123 380.524C308.85 382.106 309.499 383.747 310.067 385.438C310.898 387.029 311.855 388.5 312.92 389.828C312.92 389.828 311.238 384.733 310.852 383.161C310.466 381.588 309.606 378.771 310.329 378.771C311.051 378.771 312.272 380.409 312.92 381.932C313.568 383.456 316.422 389.303 316.422 389.303L314.216 382.276C314.216 382.276 314.092 380 315.126 380.524C316.16 381.048 317.979 387.715 317.979 387.715C317.979 387.715 317.331 381.588 318.228 381.752C319.125 381.916 318.752 385.028 319.275 386.846C319.798 388.665 320.521 394.742 321.343 397.199C321.989 399.615 322.252 402.179 322.116 404.733C321.991 405.962 321.73 410.532 321.73 410.532C321.73 410.532 321.468 438.607 320.695 445.978C319.923 453.349 316.683 461.769 315.512 464.75C315.045 465.877 314.314 466.776 313.427 467.313C312.54 467.85 311.546 467.997 310.59 467.731C309.344 467.387 303.114 464.045 303.114 464.045C302.868 457.964 301.591 452.032 299.376 446.683C295.751 438.247 294.193 432.465 294.966 432.809C295.789 433.279 296.592 433.81 297.37 434.398Z" fill="#F27F3D"/>
<path opacity="0.5" d="M297.37 434.398C301.14 437.132 304.773 440.179 308.248 443.521C308.248 443.521 310.852 434.398 312.534 427.141C314.216 419.885 316.546 409.123 316.546 409.123C316.546 409.123 313.955 403.341 312.148 401.932C310.341 400.524 308.771 395.79 307.862 393.857C306.952 391.924 309.419 391.58 309.419 391.58C309.419 391.58 307.214 385.438 306.703 383.161C306.192 380.884 307.475 379.475 308.123 380.524C308.85 382.106 309.499 383.747 310.067 385.438C310.898 387.029 311.855 388.5 312.92 389.828C312.92 389.828 311.238 384.733 310.852 383.161C310.466 381.588 309.606 378.771 310.329 378.771C311.051 378.771 312.272 380.409 312.92 381.932C313.568 383.456 316.422 389.303 316.422 389.303L314.216 382.276C314.216 382.276 314.092 380 315.126 380.524C316.16 381.048 317.979 387.715 317.979 387.715C317.979 387.715 317.331 381.588 318.228 381.752C319.125 381.916 318.752 385.028 319.275 386.846C319.798 388.665 320.521 394.742 321.343 397.199C321.989 399.615 322.252 402.179 322.116 404.733C321.991 405.962 321.73 410.532 321.73 410.532C321.73 410.532 321.468 438.607 320.695 445.978C319.923 453.349 316.683 461.769 315.512 464.75C315.045 465.877 314.314 466.776 313.427 467.313C312.54 467.85 311.546 467.997 310.59 467.731C309.344 467.387 303.114 464.045 303.114 464.045C302.868 457.964 301.591 452.032 299.376 446.683C295.751 438.247 294.193 432.465 294.966 432.809C295.789 433.279 296.592 433.81 297.37 434.398Z" fill="white"/>
<path d="M297.37 434.398C301.14 437.132 304.773 440.179 308.248 443.521C308.248 443.521 310.852 434.398 312.534 427.141C314.216 419.885 316.546 409.123 316.546 409.123C316.546 409.123 313.955 403.341 312.148 401.932C310.341 400.524 308.771 395.79 307.862 393.857C306.952 391.924 309.419 391.58 309.419 391.58C309.419 391.58 307.214 385.438 306.703 383.161C306.192 380.884 307.475 379.475 308.123 380.524C308.85 382.106 309.499 383.747 310.067 385.438C310.898 387.029 311.855 388.5 312.92 389.828C312.92 389.828 311.238 384.733 310.852 383.161C310.466 381.588 309.606 378.771 310.329 378.771C311.051 378.771 312.272 380.409 312.92 381.932C313.568 383.456 316.422 389.303 316.422 389.303L314.216 382.276C314.216 382.276 314.092 380 315.126 380.524C316.16 381.048 317.979 387.715 317.979 387.715C317.979 387.715 317.331 381.588 318.228 381.752C319.125 381.916 318.752 385.028 319.275 386.846C319.798 388.665 320.521 394.742 321.343 397.199C321.989 399.615 322.252 402.179 322.116 404.733C321.991 405.962 321.73 410.532 321.73 410.532C321.73 410.532 321.468 438.607 320.695 445.978C319.923 453.349 316.683 461.769 315.512 464.75C315.045 465.877 314.314 466.776 313.427 467.313C312.54 467.85 311.546 467.997 310.59 467.731C309.344 467.387 303.114 464.045 303.114 464.045C302.868 457.964 301.591 452.032 299.376 446.683C295.751 438.247 294.193 432.465 294.966 432.809C295.789 433.279 296.592 433.81 297.37 434.398Z" stroke="#263238" stroke-linecap="round" stroke-linejoin="round"/>
<path d="M309.419 391.58L312.397 396.838C312.397 396.838 316.808 397.723 318.627 401.752" fill="white"/>
<path d="M309.419 391.58L312.397 396.838C312.397 396.838 316.808 397.723 318.627 401.752" stroke="#263238" stroke-linecap="round" stroke-linejoin="round"/>
<path d="M311.101 390.352L318.228 390.172" stroke="#263238" stroke-linecap="round" stroke-linejoin="round"/>
<path d="M292.673 301.13C292.673 301.13 279.714 338.476 278.057 345.585C276.4 352.694 276.948 357.526 276.674 361.638C276.4 365.749 267.566 390.401 266.706 392.645C265.846 394.889 255.667 411.318 254.246 423.276C252.826 435.233 253.698 442.702 254.807 445.7C255.916 448.697 264.463 463.996 266.121 468.861C267.778 473.726 267.89 482.309 267.89 486.486C267.89 490.663 264.027 498.82 265.959 501.441C267.89 504.062 277.546 509.631 284.723 511.154C291.9 512.678 298.242 513.382 300.734 510.024C303.492 505.729 305.385 500.592 306.242 495.086C306.802 490.597 307.077 467.436 305.968 456.232C304.859 445.028 294.941 426.748 293.508 422.981C292.075 419.213 282.194 402.817 282.194 402.817C282.194 402.817 291.302 371.81 292.162 361.72C293.022 351.63 297.956 302.752 297.956 302.752C297.24 301.942 296.385 301.372 295.465 301.09C294.546 300.808 293.588 300.821 292.673 301.13Z" fill="white"/>
<path d="M282.194 402.735C282.194 402.735 291.302 371.728 292.162 361.638C292.772 354.267 295.576 326.159 297.059 311.564C295.227 325.667 290.642 358.28 285.932 370.679C279.827 386.715 272.861 407.305 272.861 414.185C272.861 421.064 270.22 421.621 265.46 425.651C260.7 429.68 261.112 438.755 267.205 445.683C272.998 452.235 285.471 430.303 290.43 416.806C287.003 410.696 282.194 402.735 282.194 402.735Z" fill="#F27F3D"/>
<path opacity="0.5" d="M282.194 402.735C282.194 402.735 291.302 371.728 292.162 361.638C292.772 354.267 295.576 326.159 297.059 311.564C295.227 325.667 290.642 358.28 285.932 370.679C279.827 386.715 272.861 407.305 272.861 414.185C272.861 421.064 270.22 421.621 265.46 425.651C260.7 429.68 261.112 438.755 267.205 445.683C272.998 452.235 285.471 430.303 290.43 416.806C287.003 410.696 282.194 402.735 282.194 402.735Z" fill="white"/>
<path d="M292.673 301.13C292.673 301.13 279.714 338.476 278.057 345.585C276.4 352.694 276.948 357.526 276.674 361.638C276.4 365.749 267.566 390.401 266.706 392.645C265.846 394.889 255.667 411.318 254.246 423.276C252.826 435.233 253.698 442.702 254.807 445.7C255.916 448.697 264.463 463.996 266.121 468.861C267.778 473.726 267.89 482.309 267.89 486.486C267.89 490.663 264.027 498.82 265.959 501.441C267.89 504.062 277.546 509.631 284.723 511.154C291.9 512.678 298.242 513.382 300.734 510.024C303.492 505.729 305.385 500.592 306.242 495.086C306.802 490.597 307.077 467.436 305.968 456.232C304.859 445.028 294.941 426.748 293.508 422.981C292.075 419.213 282.194 402.817 282.194 402.817C282.194 402.817 291.302 371.81 292.162 361.72C293.022 351.63 297.956 302.752 297.956 302.752C297.24 301.942 296.385 301.372 295.465 301.09C294.546 300.808 293.588 300.821 292.673 301.13Z" stroke="#263238" stroke-linecap="round" stroke-linejoin="round"/>
<path d="M276.126 438.591C271.703 445.323 263.429 437.477 260.676 429.631C258.508 423.489 258.881 412.334 259.155 407.764C256.9 412.842 254.882 418.427 254.321 423.276C252.95 435.233 253.773 442.702 254.882 445.7C255.991 448.697 264.538 463.996 266.195 468.861C267.853 473.726 267.89 482.309 267.89 486.486C267.89 490.663 264.027 498.82 265.959 501.441C267.89 504.062 277.546 509.631 284.723 511.154C291.9 512.678 298.242 513.382 300.734 510.024C303.492 505.729 305.386 500.592 306.242 495.086C306.802 490.597 307.077 467.436 305.968 456.232C304.859 445.028 294.941 426.748 293.508 422.981C292.075 419.213 282.194 402.817 282.194 402.817V409.5C282.194 413.562 280.537 431.875 276.126 438.591Z" fill="#F27F3D"/>
<path d="M285.222 461.375C283.851 455.036 281.92 441.949 281.085 434.856C280.749 431.99 280.425 429.123 280.138 426.666C279.191 431.384 277.87 435.872 276.126 438.542C273.435 442.653 269.31 441.31 265.871 437.887C267.018 446.748 268.999 459.672 271.429 465.061C275.291 473.66 281.085 487.485 280.537 491.597C280.126 494.66 277.721 503.063 276.525 508.173C279.175 509.424 281.901 510.378 284.674 511.023C288.106 511.848 291.588 512.259 295.078 512.252C295.568 507.365 295.78 502.438 295.713 497.51C295.439 487.158 286.58 467.731 285.222 461.375Z" fill="white" stroke="#263238" stroke-linecap="round" stroke-linejoin="round"/>
<path opacity="0.2" d="M260.676 429.631C264.012 436.54 267.892 442.969 272.251 448.812C279.104 457.821 292.81 464.373 287.203 466.83C281.596 469.287 266.644 457.002 272.874 470.106C279.104 483.21 299.04 493.857 292.81 500.409C286.58 506.961 276.612 504.504 269.136 500.409C261.66 496.314 258.545 492.219 258.545 496.314C258.545 500.409 288.449 525.798 294.679 526.617C300.909 527.436 310.254 527.436 312.746 523.341C315.238 519.246 317.73 457.821 307.139 429.975C296.548 402.129 298.193 430.63 297.37 434.398C296.548 438.165 279.727 411.138 275.366 408.681C271.005 406.224 260.302 409.631 260.676 429.631Z" fill="black"/>
<path d="M276.126 438.591C271.703 445.323 263.429 437.477 260.676 429.631C258.508 423.489 258.881 412.334 259.155 407.764C256.9 412.842 254.882 418.427 254.321 423.276C252.95 435.233 253.773 442.702 254.882 445.7C255.991 448.697 264.538 463.996 266.195 468.861C267.853 473.726 267.89 482.309 267.89 486.486C267.89 490.663 264.027 498.82 265.959 501.441C267.89 504.062 277.546 509.631 284.723 511.154C291.9 512.678 298.242 513.382 300.734 510.024C303.492 505.729 305.386 500.592 306.242 495.086C306.802 490.597 307.077 467.436 305.968 456.232C304.859 445.028 294.941 426.748 293.508 422.981C292.075 419.213 282.194 402.817 282.194 402.817V409.5C282.194 413.562 280.537 431.875 276.126 438.591Z" stroke="#263238" stroke-linecap="round" stroke-linejoin="round"/>
<path d="M230.61 667.272C225.289 663.881 224.691 656.592 225.052 651.4C223.943 653.273 222.753 655.061 221.489 656.756C217.9 661.244 211.035 665.061 211.035 665.061C211.035 665.061 201.653 667.305 200.83 672.53C200.008 677.755 199.995 694.578 201.379 699.803C202.762 705.028 211.87 718.476 214.623 718.476C217.377 718.476 217.938 715.495 217.938 712.874C217.938 710.253 216.555 700.18 216.555 696.068C216.555 691.957 218.212 677.018 218.212 677.018C218.212 677.018 220.442 676.379 230.61 667.272Z" fill="white" stroke="#263238" stroke-linecap="round" stroke-linejoin="round"/>
<path d="M200.83 672.53C199.995 677.755 199.995 694.578 201.378 699.803C202.761 705.028 211.87 718.476 214.623 718.476C217.377 718.476 217.938 715.495 217.938 712.874C217.938 710.253 216.555 700.18 216.555 696.068C216.555 692.432 217.801 680.311 218.15 677.575C217.086 677.225 215.994 677.038 214.898 677.018C212.406 677.018 212.144 681.506 210.487 677.395C208.83 673.284 211.035 665.061 211.035 665.061C211.035 665.061 201.653 667.305 200.83 672.53Z" fill="white" stroke="#263238" stroke-linecap="round" stroke-linejoin="round"/>
<path d="M292.536 301.752L291.726 291.613C291.726 291.613 292.262 291.974 291.726 290.696C291.19 289.418 282.456 270.958 282.456 270.958C282.392 270.815 282.36 270.651 282.365 270.485C282.37 270.319 282.411 270.159 282.483 270.023C282.555 269.886 282.656 269.78 282.772 269.717C282.889 269.653 283.017 269.635 283.141 269.664C284.225 269.664 287.365 274.578 287.365 274.578C287.365 274.578 286.405 270.336 287.502 271.449C288.971 273.41 290.336 275.501 291.589 277.707C291.589 277.707 291.041 274.431 291.589 274.578C292.137 274.725 294.853 282.883 294.853 282.883C294.853 282.883 299.214 291.908 299.488 292.711C299.723 293.537 299.816 294.42 299.763 295.299C299.763 296.216 297.856 304.897 297.856 304.897C297.285 303.767 296.483 302.871 295.541 302.315C294.6 301.758 293.558 301.563 292.536 301.752Z" fill="white" stroke="#263238" stroke-linecap="round" stroke-linejoin="round"/>
<path d="M291.726 291.564C291.487 289.306 291.013 287.101 290.318 285.012C289.508 283.374 285.957 278.182 288.275 278.001C290.592 277.821 291.826 284.078 292.635 285.749C293.445 287.42 297.956 289.435 298.08 292.743C298.107 294.297 298.245 295.843 298.492 297.363" fill="white"/>
<path d="M291.726 291.564C291.487 289.306 291.013 287.101 290.318 285.012C289.508 283.374 285.957 278.182 288.275 278.001C290.592 277.821 291.826 284.078 292.635 285.749C293.445 287.42 297.956 289.435 298.08 292.743C298.107 294.297 298.245 295.843 298.492 297.363" stroke="#263238" stroke-linecap="round" stroke-linejoin="round"/>
<path d="M287.365 274.643L289.271 278.149" stroke="#263238" stroke-linecap="round" stroke-linejoin="round"/>
<path d="M291.589 277.772L293.084 281.654" stroke="#263238" stroke-linecap="round" stroke-linejoin="round"/>
<path d="M292.673 301.13C292.673 301.13 282.02 331.842 278.792 342.866C282.68 342.489 288.623 343.079 293.333 348.681C295.078 330.663 297.919 302.62 297.919 302.62C297.197 301.842 296.345 301.3 295.433 301.041C294.521 300.781 293.574 300.812 292.673 301.13Z" fill="#F27F3D" stroke="#263238" stroke-linecap="round" stroke-linejoin="round"/>
<path d="M256.987 171.155C274.431 171.155 288.71 178.82 290.343 188.632C290.442 188.018 290.492 187.392 290.492 186.765C290.492 176.085 275.54 167.436 256.987 167.436C238.434 167.436 223.47 176.085 223.47 186.765C223.474 187.393 223.528 188.019 223.632 188.632C225.252 178.82 239.568 171.155 256.987 171.155Z" fill="#F27F3D" stroke="#263238" stroke-linecap="round" stroke-linejoin="round"/>
<path d="M256.987 206.11C239.543 206.11 225.252 198.444 223.632 188.632C223.528 189.24 223.474 189.86 223.47 190.483C223.47 201.179 238.422 209.828 256.987 209.828C275.553 209.828 290.492 201.179 290.492 190.483C290.493 189.861 290.442 189.24 290.343 188.632C288.71 198.444 274.406 206.11 256.987 206.11Z" fill="#F27F3D" stroke="#263238" stroke-linecap="round" stroke-linejoin="round"/>
<path d="M223.47 190.483C223.47 190.483 223.395 200.802 228.554 216.445C233.712 232.088 238.073 251.892 238.073 257.101C238.093 260.087 237.825 263.064 237.276 265.962L244.415 263.358L251.555 268.042L258.682 262.309L263.84 265.962L270.98 260.753L277.322 267.535L282.879 260.753C282.879 260.753 278.12 243.554 281.284 232.596C284.449 221.638 287.091 205.127 290.343 188.632" stroke="#263238" stroke-linecap="round" stroke-linejoin="round"/>
<path d="M282.842 260.753C282.842 260.753 274.506 246.683 268.563 239.902C264.059 234.899 259.821 229.498 255.878 223.734C255.081 222.096 241.998 202.44 239.68 197.674C237.363 192.907 231.357 177.346 231.357 177.346C231.357 177.346 245.624 241.982 237.301 265.962" stroke="#263238" stroke-linecap="round" stroke-linejoin="round"/>
<path d="M238.073 254.496L244.415 263.358C246.22 257.381 247.162 251.016 247.194 244.586V209.14C247.194 200.802 249.175 170.057 249.175 170.057C249.175 170.057 263.442 207.584 266.22 215.921C268.999 224.259 272.164 227.911 274.544 231.564C276.923 235.217 280.101 240.95 280.101 240.95" stroke="#263238" stroke-linecap="round" stroke-linejoin="round"/>
<path d="M251.555 268.042C251.555 268.042 253.922 246.159 255.916 237.297C257.91 228.435 258.682 221.654 262.657 206.011C265.277 195.272 267.395 184.331 268.999 173.251C268.999 173.251 277.322 203.997 278.518 210.778C279.558 215.839 281.021 220.734 282.879 225.372" stroke="#263238" stroke-linecap="round" stroke-linejoin="round"/>
<path d="M284.088 178.919C284.088 178.919 277.347 200.213 274.12 213.317C270.893 226.421 265.797 240.95 263.417 248.239C261.037 255.528 258.657 262.309 258.657 262.309C255.634 257.203 251.858 252.952 247.555 249.811C242.211 245.591 237.506 240.11 233.675 233.644" stroke="#263238" stroke-linecap="round" stroke-linejoin="round"/>
<path d="M286.443 210.188C286.443 210.188 274.12 237.297 272.562 245.7C271.614 250.648 271.083 255.718 270.98 260.819C270.98 260.819 252.29 241.523 245.2 235.282C238.111 229.042 228.554 216.511 228.554 216.511" stroke="#263238" stroke-linecap="round" stroke-linejoin="round"/>
<path d="M223.632 188.632C223.632 188.632 231.719 212.268 233.7 218.001C235.182 221.956 237.05 225.64 239.257 228.96" stroke="#263238" stroke-linecap="round" stroke-linejoin="round"/>
<path d="M151.352 150.762L151.538 203.964L319.923 136.265" stroke="#263238" stroke-linecap="round" stroke-linejoin="round"/>
<path d="M324.819 145.946L160.534 207.191L151.538 203.964L325.891 133.792" fill="white"/>
<path d="M324.819 145.946L160.534 207.191L151.538 203.964L325.891 133.792" stroke="#263238" stroke-linecap="round" stroke-linejoin="round"/>
<path d="M169.967 178.526V153.694" stroke="#263238" stroke-linecap="round" stroke-linejoin="round"/>
<path d="M162.752 145.651L162.952 182.359L311.737 123.358" stroke="#263238" stroke-linecap="round" stroke-linejoin="round"/>
<path d="M172.11 148.37L209.241 177.395L235.232 167.092V153.53L201.815 119.623" fill="white"/>
<path d="M172.11 148.37L209.241 177.395L235.232 167.092V153.53L201.815 119.623" stroke="#263238" stroke-linecap="round" stroke-linejoin="round"/>
<path d="M235.232 167.092L186.75 124.783" stroke="#263238" stroke-linecap="round" stroke-linejoin="round"/>
</svg>
