<svg width="1058" height="1080" viewBox="0 0 1058 1080" fill="none" xmlns="http://www.w3.org/2000/svg">
<path d="M810.119 364.319C833.13 357.673 846.396 333.631 839.75 310.621C833.104 287.61 809.062 274.344 786.052 280.99C763.041 287.636 749.775 311.678 756.421 334.688C763.067 357.699 787.109 370.965 810.119 364.319Z" fill="#F27F3D"/>
<path d="M773.631 358.548C786.833 332.49 803.635 308.141 826.069 289.562L773.631 358.548Z" fill="#F27F3D"/>
<path d="M826.069 289.562C825.338 290.416 824.518 291.19 823.623 291.87C821.984 293.347 819.653 295.539 816.86 298.309C809.594 305.543 802.889 313.321 796.804 321.574C790.731 329.854 785.13 338.468 780.024 347.377L775.408 355.501C774.907 356.538 774.312 357.526 773.631 358.456C773.986 357.361 774.442 356.303 774.993 355.294C775.939 353.286 777.301 350.447 779.286 346.962C784.203 337.895 789.732 329.173 795.834 320.858C801.945 312.568 808.789 304.843 816.283 297.778C819.168 295.055 821.568 292.954 823.323 291.593C824.176 290.836 825.095 290.156 826.069 289.562Z" fill="#FAFAFA"/>
<path d="M836.132 301.886C836.191 303.012 836.137 304.141 835.97 305.256C835.736 308.363 835.273 311.449 834.586 314.488C833.528 318.942 832.092 323.296 830.293 327.505C828.02 332.644 825.095 337.468 821.592 341.861C815.242 349.887 807.153 356.366 797.935 360.81C795.153 362.126 792.275 363.229 789.326 364.11C788.248 364.452 787.144 364.707 786.025 364.872C786.025 364.618 790.641 363.51 797.565 360.048C806.517 355.452 814.385 349 820.645 341.122C824.093 336.804 826.992 332.075 829.277 327.044C831.111 322.925 832.608 318.664 833.755 314.303C834.49 311.342 835.076 308.346 835.509 305.325C835.613 304.163 835.822 303.012 836.132 301.886Z" fill="#FAFAFA"/>
<path d="M805.851 280.63C805.851 280.861 801.419 282.015 794.842 285.453C786.269 289.89 778.781 296.164 772.913 303.828C767.044 311.492 762.939 320.357 760.891 329.79C759.275 337.014 759.345 341.653 759.091 341.653C758.974 340.572 758.974 339.481 759.091 338.399C759.193 335.444 759.54 332.503 760.129 329.605C761.987 319.962 766.064 310.884 772.037 303.089C778.009 295.293 785.714 288.995 794.542 284.692C797.184 283.373 799.933 282.276 802.758 281.414C803.756 281.036 804.793 280.773 805.851 280.63Z" fill="#FAFAFA"/>
<g opacity="0.2">
<path opacity="0.2" d="M832.878 349.223C834.395 346.009 835.31 342.544 835.578 338.999C835.687 337.216 835.317 335.436 834.505 333.845C833.693 332.254 832.47 330.91 830.962 329.952C829.662 329.349 828.252 329.018 826.82 328.978C825.387 328.939 823.962 329.191 822.63 329.721C820.327 330.508 818.205 331.749 816.389 333.37C814.573 334.992 813.101 336.961 812.06 339.161C810.652 342.184 809.752 346.085 806.543 347.169C804.235 348.046 801.489 346.892 798.996 347.331C797.253 347.842 795.726 348.911 794.65 350.375C793.574 351.839 793.009 353.616 793.042 355.432C793.201 359.111 794.204 362.704 795.973 365.933C795.973 365.933 810.19 366.095 818.499 360.787C823.677 357.438 828.496 353.563 832.878 349.223Z" fill="black"/>
</g>
<path d="M835.716 336.022C833.985 336.022 833.408 346.592 833.408 346.592C833.408 346.592 831.954 337.36 830.846 333.437C830.731 332.975 829.023 330.829 827.754 331.798C826.484 332.767 828.215 339.022 828.262 342.161C827.928 345.197 827.15 348.168 825.954 350.978C825.954 350.978 825.169 345.092 824.823 339.899C824.476 334.706 822.515 332.975 820.507 334.475C818.014 336.253 820.945 353.816 819.583 358.04C819.112 359.301 818.366 360.442 817.401 361.38C816.435 362.318 815.273 363.03 813.998 363.464C811.76 363.843 809.46 363.512 807.42 362.518C804.143 360.833 802.135 355.455 801.212 353.286C801.086 352.801 800.784 352.38 800.364 352.107C799.945 351.833 799.438 351.727 798.943 351.808C798.449 351.889 798.003 352.151 797.692 352.544C797.382 352.937 797.229 353.432 797.265 353.932C797.265 355.894 802.55 368.218 804.858 373.619L770.792 437.089L689.735 459.407L705.453 500.559L774.07 477.294C780.71 475.037 786.759 471.318 791.772 466.413C796.785 461.508 800.633 455.542 803.035 448.952L829.739 375.327C831.1 372.28 832.439 369.118 833.178 366.972C834.17 364.11 836.363 350.678 837.17 347.469C837.978 344.261 837.978 335.906 835.716 336.022Z" fill="#B78876"/>
<path d="M780.024 448.467C778.997 446.172 777.72 443.997 776.216 441.982C774.431 440.222 772.448 438.673 770.308 437.366C772.96 437.83 775.371 439.19 777.14 441.219C778.909 443.248 779.927 445.823 780.024 448.514V448.467Z" fill="#AA6550"/>
<path d="M623.196 407.362C622.23 399.315 622.315 391.176 623.45 383.151C624.639 375.058 628.936 367.747 635.428 362.771C640.899 359.292 647.299 357.562 653.777 357.809C662.778 357.809 672.449 360.833 677.48 368.288C682.512 375.742 681.75 385.436 679.788 394.114C678.473 399.815 676.557 405.654 672.333 409.716C666.102 415.74 656.362 416.363 647.822 414.794C639.283 413.224 631.112 409.855 622.434 409.139" fill="#263238"/>
<path d="M688.835 398.938L669.725 480.272L629.035 471.04L632.474 447.59C632.474 447.59 615.695 442.421 617.98 425.226C619.088 416.871 622.803 399.838 626.312 384.49C628.184 376.312 633.185 369.194 640.243 364.66C647.301 360.126 655.855 358.536 664.07 360.233C668.263 361.1 672.24 362.798 675.767 365.225C679.294 367.653 682.299 370.762 684.607 374.368C686.914 377.975 688.477 382.006 689.203 386.226C689.93 390.445 689.804 394.767 688.835 398.938Z" fill="#B78876"/>
<path d="M632.474 447.267C640.372 448.575 648.479 447.498 655.762 444.175C655.762 444.175 648.676 455.715 631.782 451.699L632.474 447.267Z" fill="#AA6550"/>
<path d="M629.266 397.622C629.171 398.26 629.328 398.91 629.702 399.435C630.076 399.96 630.64 400.32 631.274 400.438C631.584 400.519 631.907 400.535 632.223 400.485C632.54 400.435 632.842 400.319 633.111 400.145C633.381 399.971 633.611 399.744 633.787 399.476C633.963 399.209 634.082 398.907 634.136 398.592C634.236 397.953 634.082 397.3 633.707 396.774C633.331 396.247 632.764 395.889 632.128 395.776C631.818 395.694 631.494 395.678 631.178 395.729C630.862 395.779 630.559 395.895 630.29 396.069C630.021 396.242 629.791 396.47 629.614 396.738C629.438 397.005 629.319 397.306 629.266 397.622Z" fill="#263238"/>
<path d="M628.712 393.606C628.966 393.976 631.02 392.868 633.674 393.26C636.328 393.652 638.036 395.268 638.29 394.968C638.544 394.668 638.29 394.229 637.459 393.491C636.442 392.534 635.151 391.921 633.766 391.737C632.391 391.528 630.984 391.762 629.751 392.406C628.943 392.914 628.712 393.445 628.712 393.606Z" fill="#263238"/>
<path d="M654.1 401.592C654 402.231 654.154 402.884 654.529 403.41C654.904 403.937 655.471 404.295 656.108 404.408C656.416 404.489 656.738 404.506 657.053 404.457C657.368 404.408 657.67 404.294 657.939 404.123C658.207 403.952 658.438 403.727 658.615 403.462C658.793 403.197 658.914 402.898 658.97 402.584C659.065 401.944 658.91 401.291 658.536 400.762C658.161 400.233 657.598 399.869 656.962 399.746C656.652 399.664 656.329 399.648 656.012 399.699C655.696 399.749 655.394 399.865 655.124 400.038C654.855 400.212 654.625 400.44 654.449 400.707C654.272 400.975 654.154 401.276 654.1 401.592Z" fill="#263238"/>
<path d="M654.562 397.876C654.816 398.245 656.87 397.138 659.524 397.53C662.178 397.922 663.886 399.538 664.14 399.238C664.394 398.938 664.14 398.499 663.309 397.761C662.283 396.818 660.996 396.206 659.616 396.007C658.24 395.798 656.834 396.032 655.6 396.676C654.792 397.184 654.446 397.715 654.562 397.876Z" fill="#263238"/>
<path d="M642.145 416.04C640.815 415.407 639.412 414.942 637.967 414.655C637.321 414.471 636.698 414.263 636.652 413.778C636.694 413.072 636.952 412.395 637.39 411.84L640.137 407.016C642.613 402.94 644.759 398.672 646.553 394.253C643.752 398.116 641.267 402.199 639.121 406.462L636.467 411.332C635.919 412.086 635.657 413.01 635.729 413.94C635.783 414.191 635.898 414.424 636.063 414.621C636.228 414.818 636.438 414.972 636.675 415.071C637.035 415.236 637.415 415.353 637.806 415.417C639.217 415.821 640.677 416.03 642.145 416.04Z" fill="#263238"/>
<path d="M649.646 418.994C649.207 418.994 648.792 421.764 646.045 423.449C643.299 425.134 640.298 424.372 640.206 424.764C640.114 425.157 640.806 425.411 642.098 425.641C643.775 425.911 645.493 425.576 646.945 424.695C648.337 423.866 649.348 422.523 649.761 420.956C650.061 419.779 649.83 419.017 649.646 418.994Z" fill="#263238"/>
<path d="M655.393 387.444C655.554 388.206 658.231 388.252 661.278 389.083C664.324 389.914 666.679 391.114 667.186 390.514C667.694 389.914 667.186 389.498 666.171 388.667C664.97 387.568 663.521 386.776 661.947 386.359C660.394 385.95 658.767 385.903 657.193 386.221C655.993 386.613 655.323 387.098 655.393 387.444Z" fill="#263238"/>
<path d="M630.789 386.128C631.182 386.798 633.097 386.428 635.267 386.728C637.436 387.029 639.26 387.721 639.883 387.144C640.506 386.567 639.883 386.221 639.19 385.551C638.207 384.707 636.993 384.176 635.706 384.028C634.418 383.88 633.116 384.121 631.966 384.721C631.02 385.228 630.628 385.805 630.789 386.128Z" fill="#263238"/>
<path d="M681.173 410.986C681.473 410.986 693.474 409.208 691.397 420.887C689.32 432.565 678.011 428.065 678.057 427.811C678.103 427.557 681.173 410.986 681.173 410.986Z" fill="#B78876"/>
<path d="M682.396 423.933C682.396 423.933 682.581 424.118 682.904 424.326C683.119 424.479 683.364 424.585 683.622 424.636C683.881 424.688 684.147 424.684 684.404 424.626C685.246 424.289 685.981 423.732 686.533 423.013C687.086 422.294 687.434 421.441 687.543 420.541C687.775 419.546 687.775 418.512 687.543 417.517C687.504 417.133 687.37 416.765 687.152 416.447C686.935 416.128 686.641 415.869 686.297 415.694C686.076 415.585 685.823 415.56 685.586 415.624C685.348 415.688 685.141 415.836 685.004 416.04C684.774 416.34 684.82 416.571 684.751 416.594C684.681 416.617 684.52 416.34 684.751 415.879C684.863 415.596 685.077 415.366 685.351 415.232C685.536 415.152 685.737 415.11 685.939 415.11C686.142 415.11 686.342 415.152 686.528 415.232C686.99 415.414 687.398 415.71 687.713 416.094C688.028 416.478 688.24 416.936 688.328 417.425C688.605 418.531 688.605 419.688 688.328 420.795C688.215 421.859 687.789 422.867 687.103 423.689C686.416 424.511 685.501 425.11 684.474 425.411C684.145 425.438 683.814 425.394 683.503 425.283C683.193 425.171 682.91 424.994 682.673 424.764C682.373 424.21 682.35 423.957 682.396 423.933Z" fill="#AA6550"/>
<path d="M687.751 411.539C686.648 411.305 685.502 411.372 684.434 411.734C683.366 412.095 682.415 412.738 681.681 413.594C680.688 415.163 680.227 417.032 679.234 418.602C678.806 419.416 678.122 420.066 677.289 420.454C676.455 420.842 675.517 420.945 674.618 420.748C674.046 420.468 673.556 420.044 673.196 419.519C672.836 418.993 672.619 418.383 672.564 417.748C672.497 416.464 672.677 415.179 673.095 413.963C674.572 408.585 676.534 403.3 677.55 397.807C678.801 392.33 678.408 386.605 676.419 381.351C675.385 378.748 673.67 376.472 671.452 374.762C669.234 373.052 666.597 371.972 663.817 371.634C660.124 371.38 656.501 372.811 652.808 372.788C650.589 372.756 648.407 372.215 646.43 371.207C644.453 370.198 642.735 368.75 641.406 366.972C640.777 366.3 640.115 365.661 639.421 365.056C639.668 363.767 640.277 362.574 641.175 361.617C649.346 356.009 662.547 356.055 671.687 359.817C676.344 361.706 680.533 364.586 683.965 368.256C687.397 371.927 689.988 376.301 691.559 381.074C694.329 390.56 691.328 402.769 687.751 411.447" fill="#263238"/>
<path d="M753.021 730.528C759.283 725.759 764.585 719.846 768.646 713.103C769.066 712.526 769.329 711.85 769.408 711.141C769.441 710.784 769.345 710.428 769.137 710.135C768.93 709.843 768.625 709.635 768.277 709.548C767.857 709.537 767.442 709.641 767.077 709.849C760.143 713.083 753.4 716.712 746.882 720.719C748.568 724.414 750.75 727.861 753.367 730.967" fill="#263238"/>
<path d="M655.208 648.225C655.739 650.925 734.788 794.552 734.788 794.552L909.18 807.638L901.056 771.149L759.875 743.453L705.822 643.932L655.208 648.225Z" fill="#AA6550"/>
<path d="M714.408 633.731V655.772L767.931 708.856L714.408 743.476C714.408 743.476 688.905 673.59 683.042 663.273C679.421 656.392 677.423 648.773 677.203 641.001L714.408 633.731Z" fill="#F27F3D"/>
<g opacity="0.4">
<path opacity="0.4" d="M714.408 633.731V655.772L767.931 708.856L714.408 743.476C714.408 743.476 688.905 673.59 683.042 663.273C679.421 656.392 677.423 648.773 677.203 641.001L714.408 633.731Z" fill="black"/>
</g>
<path d="M863.713 765.702L927.644 774.288L917.374 853.96C909.85 852.529 899.879 809.369 899.879 809.369L858.704 805.492L863.713 765.702Z" fill="#F27F3D"/>
<g opacity="0.6">
<path opacity="0.6" d="M899.602 784.235C899.933 783.495 900.526 782.903 901.268 782.575C902.01 782.246 902.847 782.205 903.618 782.458C904.364 782.762 904.965 783.342 905.296 784.076C905.626 784.811 905.662 785.645 905.395 786.405C905.044 787.186 904.415 787.808 903.629 788.15C902.844 788.491 901.959 788.528 901.148 788.251C900.402 787.853 899.839 787.181 899.576 786.376C899.314 785.572 899.373 784.697 899.74 783.935" fill="white"/>
</g>
<g opacity="0.6">
<path opacity="0.6" d="M927.644 774.288L921.159 773.665L913.75 850.221C913.75 850.221 914.904 853.96 917.374 853.96L927.644 774.288Z" fill="white"/>
</g>
<path d="M899.302 810.523C899.694 810.523 900.133 808.631 901.61 806.877C903.087 805.123 904.864 804.338 904.749 803.946C904.634 803.553 902.326 803.946 900.548 806.023C898.771 808.1 898.956 810.57 899.302 810.523Z" fill="#263238"/>
<path d="M901.679 819.34C902.049 819.479 902.926 817.886 904.749 816.778C906.572 815.67 908.349 815.509 908.372 815.116C908.396 814.724 906.249 814.193 904.01 815.624C901.772 817.055 901.31 819.34 901.679 819.34Z" fill="#263238"/>
<path d="M911.073 825.341C911.188 824.995 909.319 824.21 907.08 824.925C904.841 825.641 903.733 827.372 904.033 827.58C904.333 827.787 905.626 826.795 907.472 826.241C909.319 825.687 910.98 825.733 911.073 825.341Z" fill="#263238"/>
<path d="M890.024 808.608C890.393 808.492 890.024 806.646 890.532 804.453C891.039 802.261 891.87 800.668 891.57 800.414C891.27 800.16 889.655 801.638 889.262 804.223C888.87 806.808 889.701 808.769 890.024 808.608Z" fill="#263238"/>
<path d="M880.815 805.492C881.341 804.231 881.517 802.851 881.323 801.499C881.24 800.037 880.992 798.589 880.584 797.183C880.327 796.349 880.019 795.532 879.661 794.737C879.477 794.249 879.211 793.797 878.876 793.398C878.631 793.107 878.296 792.905 877.924 792.826C877.552 792.746 877.164 792.794 876.822 792.96C876.533 793.129 876.284 793.359 876.092 793.634C875.901 793.909 875.772 794.222 875.714 794.552C875.644 795.057 875.644 795.57 875.714 796.075C875.804 796.953 875.982 797.819 876.245 798.66C876.67 800.088 877.324 801.437 878.184 802.653C879.661 804.707 881.022 805.538 881.115 805.4C881.207 805.261 880.169 804.199 878.991 802.122C878.314 800.925 877.794 799.645 877.445 798.314C877.257 797.555 877.118 796.784 877.03 796.006C877.03 795.129 877.03 794.414 877.422 794.252C877.814 794.091 877.63 794.252 877.861 794.391C878.084 794.69 878.27 795.016 878.414 795.36C878.776 796.109 879.092 796.88 879.361 797.668C879.813 798.98 880.138 800.332 880.33 801.707C880.41 802.978 880.572 804.242 880.815 805.492Z" fill="#263238"/>
<path d="M881.438 805.053C881.438 804.938 880.238 803.992 877.722 803.507C875.394 803.12 873.004 803.359 870.798 804.199C870.248 804.355 869.748 804.649 869.344 805.053C868.94 805.457 868.646 805.958 868.49 806.507C868.456 806.862 868.522 807.219 868.681 807.537C868.84 807.856 869.086 808.123 869.39 808.308C869.824 808.582 870.3 808.785 870.798 808.908C871.674 809.167 872.586 809.284 873.498 809.254C875.01 809.229 876.492 808.832 877.814 808.1C880.122 806.808 880.769 805.238 880.63 805.192C880.492 805.146 879.522 806.3 877.399 807.223C876.169 807.758 874.84 808.025 873.498 808.008C872.716 807.986 871.94 807.862 871.19 807.638C870.36 807.408 869.713 806.992 869.852 806.692C869.99 806.392 870.613 805.7 871.329 805.469C872.074 805.159 872.847 804.92 873.637 804.753C874.979 804.472 876.355 804.387 877.722 804.5C879.961 804.661 881.369 805.261 881.438 805.053Z" fill="#263238"/>
<path d="M759.599 699.324C757.818 700.407 755.968 701.371 754.06 702.209C749.629 704.489 745.343 707.04 741.227 709.849C737.125 712.672 733.209 715.755 729.502 719.08C728.051 720.552 726.509 721.932 724.886 723.212C726.031 721.453 727.405 719.854 728.972 718.457C732.525 714.906 736.387 711.677 740.512 708.81C744.672 705.947 749.083 703.468 753.69 701.401C755.56 700.453 757.547 699.755 759.599 699.324Z" fill="#FAFAFA"/>
<path d="M655.208 788.482C655.208 788.482 732.526 747.63 731.833 740.129C731.141 732.629 720.293 737.452 715.677 740.129C711.061 742.807 655.208 788.482 655.208 788.482Z" fill="#263238"/>
<path d="M613.964 669.505C614.379 671.559 656.039 763.209 676.28 807.985C679.61 815.307 684.79 821.635 691.31 826.346C697.83 831.057 705.464 833.987 713.462 834.85L866.805 850.844L870.429 811.608L734.257 783.912L681.473 659.396L613.964 669.505Z" fill="#B78876"/>
<path d="M591.6 655.772L655.208 788.482C655.208 788.482 731.834 721.965 731.834 740.129L696.66 655.772L697.929 637.47L591.6 655.772Z" fill="#F27F3D"/>
<g opacity="0.2">
<path opacity="0.2" d="M591.6 655.772L655.208 788.482C655.208 788.482 731.834 721.965 731.834 740.129L696.66 655.772L697.929 637.47L591.6 655.772Z" fill="black"/>
</g>
<path d="M726.34 727.02C725.226 727.5 724.076 727.894 722.901 728.197L718.932 729.72C717.432 730.413 715.654 731.082 713.785 732.028C703.944 736.702 694.435 742.046 685.327 748.023C676.157 753.894 667.411 760.403 659.155 767.502C657.539 768.818 656.2 770.157 654.954 771.264C653.708 772.372 652.646 773.388 651.884 774.219C651.072 775.131 650.184 775.972 649.23 776.734C649.916 775.723 650.688 774.773 651.538 773.896C652.3 773.018 653.269 771.957 654.469 770.803C655.67 769.649 656.962 768.241 658.554 766.856C666.694 759.532 675.425 752.893 684.658 747.007C693.808 740.993 703.424 735.722 713.416 731.244C715.331 730.367 717.132 729.743 718.678 729.12C720.224 728.497 721.632 728.128 722.74 727.782C723.91 727.403 725.117 727.147 726.34 727.02Z" fill="#FAFAFA"/>
<path d="M866.944 810.5L933.091 819.94L921.828 902.29C914.027 900.743 904.08 855.968 904.08 855.968L861.405 851.652L866.944 810.5Z" fill="#F27F3D"/>
<g opacity="0.6">
<path opacity="0.6" d="M903.964 830.003C904.321 829.251 904.939 828.654 905.703 828.323C906.467 827.992 907.326 827.949 908.119 828.203C908.889 828.526 909.507 829.131 909.846 829.895C910.184 830.659 910.219 831.523 909.942 832.311C909.572 833.116 908.915 833.754 908.1 834.099C907.284 834.445 906.369 834.474 905.534 834.18C904.763 833.764 904.185 833.063 903.922 832.227C903.659 831.391 903.732 830.486 904.126 829.703" fill="white"/>
</g>
<g opacity="0.6">
<path opacity="0.6" d="M933.091 819.94L926.444 819.34L918.089 898.574C918.089 898.574 919.197 902.451 921.828 902.382L933.091 819.94Z" fill="white"/>
</g>
<path d="M903.364 857.237C903.78 857.237 904.241 855.299 905.787 853.498C907.334 851.698 909.203 850.867 909.088 850.475C908.972 850.082 906.572 850.359 904.726 852.575C902.879 854.791 903.064 857.284 903.364 857.237Z" fill="#263238"/>
<path d="M905.833 866.377C906.203 866.516 907.126 864.854 909.018 863.723C910.911 862.592 912.757 862.453 912.78 862.061C912.804 861.669 910.588 861.069 908.164 862.523C905.741 863.977 905.441 866.308 905.833 866.377Z" fill="#263238"/>
<path d="M915.481 872.701C915.619 872.332 913.681 871.501 911.35 872.239C909.019 872.978 907.865 874.732 908.188 874.94C908.511 875.147 909.826 874.155 911.765 873.578C913.704 873.001 915.389 873.093 915.481 872.701Z" fill="#263238"/>
<path d="M893.832 855.183C894.224 855.183 893.832 853.129 894.386 850.89C894.94 848.652 895.817 846.967 895.494 846.713C895.171 846.459 893.509 847.959 893.001 850.613C892.493 853.268 893.486 855.322 893.832 855.183Z" fill="#263238"/>
<path d="M884.323 851.883C884.879 850.581 885.071 849.153 884.877 847.751C884.818 846.227 884.57 844.715 884.139 843.251C883.889 842.385 883.58 841.537 883.215 840.712C883.029 840.207 882.756 839.738 882.408 839.327C882.161 839.024 881.821 838.812 881.441 838.724C881.06 838.637 880.661 838.678 880.307 838.843C880 839.009 879.734 839.243 879.53 839.526C879.326 839.81 879.19 840.137 879.13 840.481C879.061 841.002 879.061 841.53 879.13 842.051C879.238 842.963 879.416 843.866 879.661 844.751C880.097 846.226 880.767 847.62 881.646 848.882C883.146 851.052 884.554 851.906 884.646 851.767C884.739 851.629 883.677 850.521 882.477 848.375C881.805 847.118 881.285 845.785 880.931 844.405C880.719 843.596 880.58 842.769 880.515 841.935C880.4 841.035 880.515 840.297 880.931 840.112C881.346 839.927 881.138 840.112 881.369 840.274C881.609 840.583 881.804 840.925 881.946 841.289C882.319 842.034 882.635 842.805 882.892 843.597C883.364 844.96 883.697 846.367 883.885 847.798C883.937 849.168 884.084 850.533 884.323 851.883Z" fill="#263238"/>
<path d="M884.9 851.421C883.829 850.483 882.487 849.909 881.069 849.782C879.541 849.524 877.98 849.524 876.453 849.782C875.546 849.929 874.656 850.169 873.798 850.498C873.23 850.642 872.709 850.931 872.285 851.335C871.86 851.739 871.547 852.246 871.375 852.806C871.328 853.175 871.388 853.549 871.547 853.884C871.707 854.22 871.959 854.503 872.275 854.699C872.729 854.971 873.219 855.181 873.729 855.322C874.936 855.679 876.203 855.794 877.454 855.659C878.706 855.524 879.919 855.143 881.023 854.537C883.331 853.221 884.069 851.606 883.954 851.56C882.871 852.316 881.746 853.01 880.584 853.637C879.299 854.174 877.914 854.433 876.522 854.399C875.738 854.374 874.962 854.242 874.214 854.006C873.36 853.752 872.691 853.337 872.829 853.014C872.967 852.691 873.637 851.998 874.375 851.744C875.124 851.442 875.896 851.203 876.683 851.029C878.075 850.767 879.495 850.69 880.907 850.798C883.446 851.006 884.9 851.652 884.9 851.421Z" fill="#263238"/>
<path d="M734.88 783.912C735.042 784.212 732.918 785.759 730.726 788.113C728.533 790.467 727.102 792.729 726.779 792.498C727.235 790.483 728.308 788.66 729.849 787.282C731.124 785.651 732.887 784.471 734.88 783.912Z" fill="#AA6550"/>
<path d="M690.866 459.292L695.182 466.216C700.772 475.186 704.428 485.225 705.915 495.689L706.607 500.444L685.373 594.079L715.124 633.846L661.716 650.856C645.142 656.321 627.652 658.462 610.248 657.157L590.953 655.726L590.007 563.152L598.316 477.064L626.219 466.678L667.256 459.292H690.866Z" fill="#F27F3D"/>
<path d="M687.404 556.066C687.431 557.093 687.369 558.12 687.22 559.136C687.012 561.098 686.712 563.937 686.227 567.422C685.1 576.585 682.987 585.6 679.927 594.31C678.201 599.116 675.916 603.702 673.118 607.973C670.875 611.59 667.593 614.446 663.701 616.167C661.033 617.252 658.084 617.439 655.3 616.698C654.554 616.486 653.84 616.176 653.177 615.774C652.746 615.482 652.538 615.321 652.554 615.29C652.554 615.29 653.523 615.821 655.416 616.236C658.094 616.783 660.876 616.484 663.378 615.382C667.044 613.622 670.116 610.831 672.218 607.35C674.893 603.117 677.099 598.606 678.796 593.895C681.811 585.256 684.013 576.355 685.373 567.306C685.927 564.006 686.389 561.236 686.758 559.067C686.854 558.045 687.071 557.037 687.404 556.066Z" fill="#263238"/>
<g opacity="0.2">
<path opacity="0.2" d="M683.758 567.399C682.027 566.222 679.811 567.953 678.634 569.707C676.013 574.134 673.751 578.765 671.872 583.555C669.956 588.383 666.423 592.396 661.878 594.91C658.668 596.023 655.361 596.834 652 597.333C650.317 597.606 648.721 598.268 647.339 599.266C645.957 600.263 644.826 601.569 644.037 603.08C642.399 607.212 645.353 612.012 649.322 613.997C653.461 615.666 657.951 616.277 662.386 615.774C663.971 615.831 665.532 615.378 666.84 614.482C668.222 613.557 669.387 612.345 670.256 610.928C678.574 599.329 683.613 585.704 684.843 571.484C685.05 570.076 685.004 568.23 683.758 567.399Z" fill="black"/>
</g>
<path d="M665.04 534.879C665.04 534.694 666.263 534.279 668.271 535.156C669.47 535.734 670.514 536.588 671.318 537.649C672.37 539.065 673.074 540.71 673.372 542.449C673.93 546.767 673.536 551.155 672.218 555.305C671.49 557.747 670.507 560.107 669.287 562.344C668.611 563.671 667.713 564.873 666.633 565.899C665.321 567.127 663.583 567.797 661.786 567.768C660.861 567.702 659.964 567.424 659.163 566.956C658.363 566.488 657.681 565.842 657.17 565.068C656.332 563.798 655.744 562.38 655.439 560.89C654.976 558.348 654.813 555.761 654.954 553.181C655.155 548.869 656.215 544.64 658.07 540.741C658.757 539.174 659.763 537.767 661.024 536.61C662.065 535.742 663.328 535.182 664.671 534.994C666.979 534.741 667.948 535.687 667.833 535.848C667.717 536.01 666.656 535.848 664.994 536.356C663.845 536.845 662.821 537.586 661.998 538.525C661.174 539.464 660.573 540.577 660.239 541.78C658.88 545.478 658.162 549.38 658.116 553.32C658.064 555.644 658.273 557.967 658.739 560.244C658.95 561.274 659.358 562.253 659.939 563.129C660.139 563.461 660.415 563.741 660.744 563.945C661.073 564.15 661.446 564.274 661.832 564.306C663.448 564.306 665.04 562.829 666.148 560.752C667.289 558.736 668.239 556.619 668.987 554.428C670.31 550.73 670.914 546.813 670.764 542.888C670.715 541.644 670.399 540.425 669.838 539.314C669.276 538.203 668.482 537.226 667.51 536.448C666.125 535.294 665.017 535.156 665.04 534.879Z" fill="white"/>
<path d="M681.011 561.052C680.042 560.752 682.396 550.735 686.25 538.687C687.22 535.664 688.166 532.825 689.089 530.24L690.982 532.363C682.858 533.587 677.134 533.979 676.926 533.24C676.718 532.502 682.35 530.932 690.382 529.109L693.036 528.532L692.251 531.232C691.513 533.887 690.636 536.772 689.689 539.795C685.835 551.843 681.958 561.352 681.011 561.052Z" fill="white"/>
<path d="M692.136 545.196C692.298 546.165 689.574 547.504 686.043 548.104C682.512 548.704 679.488 548.45 679.303 547.481C679.119 546.511 681.865 545.173 685.397 544.55C688.928 543.926 691.951 544.203 692.136 545.196Z" fill="white"/>
<path d="M615.903 468.109C617.642 467.573 619.479 467.431 621.28 467.693C626.262 468.388 630.831 470.844 634.159 474.617C636.523 477.127 638.332 480.108 639.467 483.364C640.753 487.077 641.416 490.976 641.429 494.904C641.229 503.851 639.577 512.706 636.536 521.123C633.685 529.59 629.76 537.657 624.858 545.126C622.683 548.407 619.967 551.295 616.826 553.666C614.079 555.807 610.782 557.127 607.317 557.474C604.822 557.712 602.307 557.34 599.987 556.391C597.668 555.443 595.613 553.945 594 552.027C593.177 550.95 592.581 549.717 592.246 548.404C592.125 547.945 592.071 547.471 592.084 546.996C592.499 548.723 593.286 550.338 594.392 551.727C595.993 553.511 597.997 554.886 600.237 555.737C602.478 556.588 604.889 556.891 607.271 556.62C610.556 556.221 613.67 554.928 616.272 552.881C619.278 550.531 621.875 547.7 623.957 544.503C628.792 537.098 632.67 529.11 635.497 520.731C638.455 512.408 640.06 503.666 640.252 494.835C640.532 487.641 638.111 480.603 633.466 475.102C630.283 471.45 625.939 469.005 621.165 468.178C619.417 467.984 617.655 467.961 615.903 468.109Z" fill="#FAFAFA"/>
<path d="M710.669 627.776C710.33 628.014 709.966 628.215 709.584 628.376L706.376 629.946C703.584 631.307 699.452 633.131 694.375 635.323C681.058 641 667.253 645.458 653.131 648.64C645.336 650.353 637.431 651.517 629.474 652.125C622.975 652.587 616.452 652.626 609.948 652.241C607.155 652.125 604.663 651.825 602.47 651.595C600.278 651.364 598.408 651.11 596.862 650.833L593.354 650.21C592.935 650.161 592.524 650.06 592.13 649.91C592.544 649.848 592.964 649.848 593.377 649.91L596.931 650.302C598.454 650.51 600.347 650.718 602.539 650.856C604.732 650.994 607.155 651.271 609.994 651.318C616.458 651.583 622.932 651.46 629.382 650.948C637.28 650.266 645.127 649.087 652.877 647.417C666.928 644.218 680.698 639.888 694.052 634.469C699.198 632.392 703.284 630.684 706.192 629.461L709.492 628.099C709.866 627.934 710.263 627.825 710.669 627.776Z" fill="#FAFAFA"/>
<path d="M599.077 519.877C599.077 519.877 594.692 549.604 604.709 550.435C614.726 551.266 633.421 509.099 631.482 498.089C629.889 488.95 599.077 519.877 599.077 519.877Z" fill="#B78876"/>
<path d="M624.765 480.064C620.913 476.397 615.861 474.253 610.547 474.028C605.233 473.803 600.018 475.513 595.869 478.841L532.607 532.156L447.211 543.811C443.703 541.826 436.64 537.81 434.932 536.702C433.155 535.523 431.594 534.048 430.316 532.34C428.601 530.243 427.194 527.912 426.139 525.416C426.013 524.926 425.74 524.486 425.356 524.156C424.972 523.826 424.496 523.622 423.992 523.572C423.489 523.521 422.982 523.627 422.54 523.874C422.098 524.122 421.743 524.499 421.523 524.955C420.83 527.078 422.723 533.587 428.055 539.426C433.386 545.265 421.131 543.442 416.515 542.865C411.899 542.288 398.051 541.111 396.712 542.357C394.842 544.18 396.435 546.511 400.959 546.973C405.482 547.435 418.892 549.858 418.476 552.212C418.061 554.566 395.166 551.243 395.166 551.243C395.166 551.243 390.388 549.743 389.811 552.466C388.749 557.359 413.329 559.067 415.684 559.182C417.322 559.182 416.953 561.836 415.199 561.652C413.445 561.467 392.442 557.844 391.334 562.806C390.48 566.637 411.552 564.421 415.476 567.583C419.4 570.745 399.32 567.583 398.651 571.322C398.397 572.684 398.42 573.746 410.191 573.861C415.037 573.861 431.724 572.661 443.31 571.553L532.515 572.384C540.226 572.455 547.746 569.98 553.91 565.345L622.896 513.345C625.409 511.421 627.477 508.975 628.957 506.177C630.437 503.379 631.296 500.295 631.473 497.134C631.651 493.973 631.143 490.812 629.986 487.866C628.828 484.919 627.047 482.258 624.765 480.064Z" fill="#B78876"/>
<path d="M614.31 517.8C613.023 519.233 611.6 520.539 610.064 521.7L599.608 530.84C595.523 534.371 591.715 537.487 588.876 539.633C587.42 540.889 585.825 541.973 584.122 542.865C585.389 541.42 586.805 540.113 588.345 538.964L598.824 529.917C602.886 526.362 606.694 523.247 609.533 521.123C610.997 519.842 612.6 518.728 614.31 517.8Z" fill="#AA6550"/>
<path d="M398.697 497.189C398.554 496.714 398.454 496.228 398.397 495.735C398.235 494.651 398.004 493.266 397.75 491.535C397.496 489.804 397.15 487.473 396.919 484.865C396.689 482.257 396.296 479.302 396.135 476.002C395.973 472.701 395.673 469.078 395.627 465.2C395.581 461.323 395.627 457.169 395.627 452.806C396.088 433.842 398.681 414.991 403.359 396.607C404.513 392.406 405.528 388.367 406.728 384.674C407.929 380.982 409.036 377.543 410.121 374.427C411.206 371.311 412.429 368.541 413.283 366.095C414.137 363.648 415.13 361.479 415.891 359.886L417.645 356.032C417.822 355.567 418.054 355.125 418.338 354.716C418.215 355.198 418.053 355.669 417.853 356.124L416.376 360.048C415.683 361.756 414.853 363.856 414.068 366.303C413.283 368.749 412.083 371.542 411.091 374.681C410.098 377.82 408.898 381.212 407.859 384.951C406.821 388.69 405.713 392.66 404.605 396.861C402.574 405.308 400.681 414.701 399.274 424.557C397.866 434.412 397.219 444.036 396.966 452.714C396.966 457.076 396.758 461.208 396.966 465.085C397.173 468.962 397.15 472.54 397.335 475.84C397.52 479.141 397.75 482.072 397.935 484.68C398.12 487.288 398.35 489.55 398.558 491.373C398.766 493.196 398.881 494.512 398.974 495.597C398.954 496.138 398.861 496.674 398.697 497.189Z" fill="#263238"/>
<path d="M289.436 346.5C289.699 346.946 289.915 347.418 290.082 347.908L291.721 352.016C293.152 355.57 295.044 360.81 297.214 367.318C299.383 373.827 301.715 381.674 304.023 390.398C306.331 399.122 308.477 408.862 310.323 419.248C312.17 429.634 313.416 439.489 314.316 448.537C315.216 457.584 315.678 465.754 315.863 472.609C316.047 479.464 316.07 485.026 315.863 488.765C315.863 490.581 315.816 492.058 315.724 493.197C315.72 493.714 315.682 494.231 315.609 494.743C315.546 494.229 315.546 493.71 315.609 493.197C315.609 492.066 315.609 490.588 315.609 488.765C315.609 484.934 315.424 479.395 315.124 472.609C314.824 465.824 314.247 457.63 313.324 448.629C312.401 439.628 311.016 429.75 309.239 419.433C307.461 409.116 305.246 399.422 303.076 390.629C300.907 381.836 298.599 374.011 296.522 367.549C294.444 361.087 292.69 355.755 291.398 352.155C290.821 350.424 290.336 349.039 289.967 347.977C289.74 347.504 289.562 347.009 289.436 346.5Z" fill="#263238"/>
<path d="M315.77 494.881C315.517 494.674 335.712 470.024 360.892 439.812C386.072 409.601 406.706 385.274 407.052 385.482C407.398 385.69 387.088 410.362 361.907 440.574C336.727 470.786 316.024 495.112 315.77 494.881Z" fill="#263238"/>
<path d="M339.843 492.92C340.332 491.93 340.912 490.987 341.574 490.104C342.774 488.35 344.551 485.834 346.836 482.787C358.746 466.903 372.291 452.313 387.249 439.259C390.111 436.766 392.488 434.804 394.173 433.489C395.01 432.769 395.905 432.12 396.85 431.55C396.162 432.396 395.389 433.169 394.542 433.858L387.872 439.905C382.287 445.029 374.717 452.299 366.846 460.792C358.976 469.286 352.283 477.341 347.575 483.295L342.035 490.381C341.384 491.293 340.65 492.143 339.843 492.92Z" fill="#263238"/>
<path d="M366.085 495.435C365.831 495.228 372.339 486.85 380.602 476.717C385.439 470.473 390.593 464.48 396.042 458.761C391.531 465.247 386.685 471.495 381.525 477.479C376.688 483.724 371.534 489.717 366.085 495.435Z" fill="#263238"/>
<path d="M314.363 466.401C314.631 466.021 314.949 465.68 315.309 465.385L318.194 462.685C319.463 461.531 321.01 460.1 322.81 458.392C324.61 456.684 326.572 454.814 328.695 452.599C333.034 448.26 337.927 442.905 343.282 436.789C348.636 430.673 354.106 423.68 359.576 416.017C365.046 408.354 369.801 400.9 373.932 393.952C378.063 387.005 381.502 380.543 384.203 375.05C385.634 372.327 386.764 369.811 387.803 367.618C388.842 365.426 389.719 363.51 390.411 361.941C391.104 360.371 391.634 359.286 392.05 358.34C392.236 357.917 392.452 357.509 392.696 357.117C392.622 357.573 392.482 358.016 392.281 358.432L390.85 362.125C390.226 363.718 389.442 365.656 388.542 367.895C387.642 370.134 386.464 372.673 385.08 375.419C382.472 380.982 379.056 387.467 375.017 394.506C370.978 401.546 366.108 409.07 360.661 416.709C355.214 424.349 349.56 431.296 344.251 437.481C338.943 443.667 333.819 448.883 329.411 453.153C327.241 455.322 325.164 457.169 323.387 458.83C321.61 460.492 320.017 461.877 318.771 462.985L315.724 465.524C315.31 465.874 314.853 466.169 314.363 466.401Z" fill="#263238"/>
<path d="M312.354 436.35C313.113 435.321 313.938 434.341 314.824 433.419C316.486 431.619 318.84 428.942 321.748 425.618C329.204 416.959 336.141 407.865 342.52 398.384C348.82 388.842 354.635 378.99 359.945 368.865L364.723 359.633C365.24 358.461 365.866 357.34 366.592 356.286C366.205 357.501 365.719 358.682 365.138 359.817C364.169 362.125 362.646 365.31 360.684 369.257C355.587 379.537 349.852 389.489 343.512 399.053C337.123 408.594 330.058 417.664 322.371 426.195C319.394 429.45 316.947 432.034 315.193 433.742C314.335 434.703 313.384 435.577 312.354 436.35Z" fill="#263238"/>
<path d="M308.362 411.816C308.223 411.678 310.67 409.047 314.132 404.569C318.765 398.75 323.072 392.679 327.033 386.382C331.009 380.105 334.526 373.548 337.558 366.764C339.866 361.548 340.881 358.155 341.089 358.225C341.005 359.058 340.827 359.878 340.558 360.671C339.907 362.858 339.137 365.008 338.25 367.11C335.429 374.048 331.983 380.714 327.956 387.029C323.975 393.359 319.547 399.398 314.709 405.1C312.862 407.293 311.27 409.001 310.093 410.132C309.579 410.755 308.998 411.32 308.362 411.816Z" fill="#263238"/>
<path d="M300.976 384.444C300.676 384.236 304.415 378.489 308.315 370.988C312.216 363.487 314.801 357.14 315.239 357.14C313.953 362.135 312.013 366.939 309.469 371.426C307.247 376.133 304.389 380.513 300.976 384.444Z" fill="#263238"/>
<path d="M298.483 375.142C298.828 375.548 299.13 375.989 299.384 376.458L301.692 380.358C303.723 383.774 306.746 388.644 310.623 394.599C314.501 400.553 319.255 407.5 324.795 415.071C330.334 422.641 336.727 430.742 343.72 439.005C350.713 447.267 357.776 454.791 364.331 461.508C370.885 468.224 377.025 474.017 382.287 478.771C387.549 483.526 391.865 487.311 394.912 489.85L398.397 492.85C398.811 493.18 399.197 493.542 399.551 493.935C399.078 493.688 398.636 493.386 398.235 493.035L394.612 490.219C391.496 487.773 387.064 484.08 381.733 479.395C376.402 474.709 370.193 468.916 363.523 462.292C356.853 455.668 349.86 448.029 342.751 439.789C335.642 431.55 329.411 423.333 323.848 415.74C318.286 408.147 313.624 401.084 309.862 394.968C306.1 388.852 303.146 384.005 301.23 380.52L299.037 376.504C298.808 376.069 298.623 375.613 298.483 375.142Z" fill="#263238"/>
<path d="M319.44 355.432C319.677 355.825 319.87 356.243 320.017 356.678L321.448 360.302C322.048 361.894 322.787 363.81 323.756 366.026C324.725 368.241 325.672 370.803 326.964 373.527C329.387 379.066 332.526 385.551 336.381 392.545C340.602 400.133 345.224 407.49 350.229 414.586C355.247 421.625 360.64 428.39 366.385 434.85C371.739 440.782 376.84 445.859 381.294 449.945C383.464 452.045 385.587 453.776 387.387 455.368C389.188 456.961 390.78 458.3 392.003 459.361L395.004 461.854C395.375 462.124 395.709 462.442 395.996 462.8C395.597 462.59 395.218 462.343 394.865 462.062L391.727 459.754C390.365 458.738 388.703 457.446 386.88 455.922C385.056 454.399 382.864 452.668 380.648 450.591C375.334 445.868 370.272 440.868 365.485 435.612C359.637 429.162 354.166 422.38 349.098 415.301C344.074 408.163 339.451 400.75 335.25 393.099C331.465 386.036 328.326 379.481 326.018 373.896C324.771 371.126 323.871 368.541 322.971 366.303C322.071 364.064 321.402 362.102 320.871 360.487C320.34 358.871 319.971 357.763 319.648 356.771C319.543 356.331 319.473 355.883 319.44 355.432Z" fill="#263238"/>
<path d="M344.459 358.732C345.056 359.823 345.551 360.966 345.936 362.148C346.813 364.456 348.244 367.595 349.883 371.496C358.923 391.924 371.529 410.579 387.111 426.588C390.088 429.657 392.557 432.081 394.312 433.696C395.253 434.515 396.132 435.402 396.943 436.35C395.901 435.667 394.921 434.894 394.011 434.042C392.142 432.496 389.58 430.165 386.51 427.118C378.517 419.243 371.327 410.591 365.046 401.292C358.778 391.997 353.437 382.11 349.098 371.773C347.436 367.803 346.236 364.525 345.497 362.241C345.064 361.099 344.717 359.926 344.459 358.732Z" fill="#263238"/>
<path d="M369.177 357.048C369.339 357.048 370.678 360.233 373.009 365.379C375.34 370.526 378.756 377.589 383.025 385.113C387.295 392.637 391.588 399.145 394.842 403.785C398.097 408.424 400.174 411.239 400.035 411.355C399.897 411.47 399.366 410.778 398.327 409.555C397.289 408.331 395.858 406.554 394.15 404.292C389.702 398.353 385.632 392.14 381.964 385.69C378.309 379.242 375.056 372.575 372.224 365.726C371.162 363.095 370.355 360.925 369.916 359.425C369.559 358.671 369.311 357.871 369.177 357.048Z" fill="#263238"/>
<path d="M396.019 355.247C398.255 359.581 400.25 364.035 401.997 368.588C404.123 372.97 405.995 377.47 407.605 382.066C404.903 377.983 402.651 373.618 400.889 369.049C398.778 364.636 397.145 360.009 396.019 355.247Z" fill="#263238"/>
<path d="M311.639 435.127C311.87 434.896 325.348 448.006 341.643 464.416C357.937 480.826 371.139 494.304 370.908 494.535C370.677 494.766 357.199 481.656 340.904 465.247C324.61 448.837 311.385 435.358 311.639 435.127Z" fill="#263238"/>
<path d="M315.147 464.3C316.943 465.321 318.616 466.545 320.132 467.947C323.966 471.125 327.596 474.54 331.003 478.171C334.438 481.769 337.638 485.586 340.581 489.596C341.909 491.181 343.033 492.925 343.928 494.789C342.483 493.346 341.141 491.803 339.912 490.173C337.604 487.242 334.096 483.249 330.126 479.025C326.156 474.802 322.371 471.224 319.578 468.639C317.984 467.317 316.502 465.866 315.147 464.3Z" fill="#263238"/>
<path d="M432.532 348.508C432.529 349.678 432.296 350.836 431.845 351.915C431.395 352.995 430.736 353.976 429.906 354.801C429.077 355.626 428.093 356.28 427.011 356.724C425.929 357.169 424.77 357.397 423.6 357.394L289.436 357.048L239.837 385.436V341.353L423.646 339.622C424.813 339.622 425.969 339.852 427.047 340.299C428.125 340.745 429.104 341.4 429.93 342.225C430.755 343.05 431.409 344.029 431.856 345.108C432.302 346.186 432.532 347.341 432.532 348.508Z" fill="#F27F3D"/>
<path d="M197.716 434.527H239.837L239.837 81.8417H197.716L197.716 434.527Z" fill="#455A64"/>
<path d="M198.916 249.01L75.2306 368.795C71.9891 371.936 69.4163 375.7 67.6672 379.861C65.918 384.021 65.0285 388.493 65.0523 393.006L69.2528 1085.89H43.634V385.736C43.6353 380.334 44.7276 374.988 46.8455 370.019C48.9633 365.049 52.063 360.559 55.9588 356.817L197.716 220.645" fill="#263238"/>
</svg>
