<svg width="1440" height="1024" viewBox="0 0 1440 1024" fill="none" xmlns="http://www.w3.org/2000/svg">
<g clip-path="url(#clip0)">
<path d="M1513.5 0H0V1120.71H1513.5V0Z" fill="#D94423"/>
<path d="M1657.83 -1347.74C1591.01 -1289.27 1353.43 -1077.64 1256.94 -996.939C1160.45 -916.236 1195.36 -929.07 1078.86 -863.52C962.367 -797.971 686.655 -679.842 557.956 -603.642C429.257 -527.441 409.794 -485.628 306.67 -406.319C203.547 -327.01 23.0569 -229.006 -60.7836 -127.785C-144.624 -26.5637 -90.0358 116.356 -196.372 201.008C-302.708 285.66 -569.203 293.336 -698.799 380.128C-828.395 466.92 -928.092 664.82 -973.95 721.759L-186.946 2577.3L2444.83 507.805L1657.83 -1347.74Z" fill="url(#paint0_linear)"/>
<path d="M1773.03 -1061.89C1696.09 -1016.53 1454.17 -896.625 1311.34 -789.734C1168.52 -682.842 1049.03 -548.074 916.1 -420.536C783.173 -292.999 682.001 -153.518 513.782 -24.5068C345.563 104.504 54.1288 260.911 -93.213 353.53C-240.555 446.149 -244.479 424.153 -370.268 531.206C-496.058 638.26 -768.336 918.411 -847.95 995.852L-176.153 2577.3L2444.83 519.566L1773.03 -1061.89Z" fill="url(#paint1_linear)"/>
<path d="M1886.8 -782.182C1813.99 -737.936 1607.66 -642.209 1449.94 -516.709C1292.22 -391.21 1083.77 -135.953 940.461 -29.1859C797.148 77.5813 728.434 24.642 590.059 123.894C451.683 223.146 253.49 460.162 110.21 566.325C-33.0706 672.488 -130.291 644.306 -269.624 760.871C-408.956 877.435 -649.76 1181.57 -725.787 1265.71L-167.758 2577.3L2444.83 529.409L1886.8 -782.182Z" fill="url(#paint2_linear)"/>
<path d="M2000.31 -498.733C1892.27 -397.073 1560.06 -63.644 1352.12 111.23C1144.18 286.104 988.26 405.965 752.668 550.511C517.077 695.058 164.221 814.399 -61.4304 978.509C-287.082 1142.62 -511.272 1442.4 -601.24 1535.17L-156.715 2577.3L2444.83 543.396L2000.31 -498.733Z" fill="url(#paint3_linear)"/>
<path d="M2112.79 -218.158C2036.05 -181.187 1797.68 -91.2313 1652.35 3.67204C1507.02 98.5754 1342.37 241.505 1240.79 351.262C1139.2 461.018 1123.73 561.265 1042.82 662.21C961.899 763.155 877.1 892.215 755.281 956.932C633.462 1021.65 450.165 986.421 311.901 1050.51C173.636 1114.59 57.3944 1216.32 -74.3038 1341.45C-206.002 1466.57 -410.957 1724.62 -478.288 1801.25L-146.244 2577.3L2444.83 557.89L2112.79 -218.158Z" fill="url(#paint4_linear)"/>
<path d="M2224.64 66.7606C2102.05 140.452 1695.01 336.493 1489.1 508.906C1283.2 681.319 1184.32 913.368 989.203 1101.24C794.09 1289.11 542.098 1475.46 318.426 1636.13C94.7536 1796.8 -240.955 1993.75 -352.831 2065.27L-132.64 2577.3L2444.83 578.792L2224.64 66.7606Z" fill="url(#paint5_linear)"/>
<path d="M2335.47 356.96C2224.35 440.793 1881.92 690.097 1668.73 859.955C1455.54 1029.81 1260.76 1223.81 1056.35 1376.11C851.94 1528.41 655.811 1615.58 442.274 1773.75C228.738 1931.93 -113.68 2233.25 -224.871 2325.15L-115.514 2577.3L2444.83 609.11L2335.47 356.96Z" fill="url(#paint6_linear)"/>
</g>
<defs>
<linearGradient id="paint0_linear" x1="1694.98" y1="-1260.15" x2="-1305.08" y2="-472.617" gradientUnits="userSpaceOnUse">
<stop stop-color="#D92623"/>
</linearGradient>
<linearGradient id="paint1_linear" x1="1814.06" y1="-965.319" x2="-1158.37" y2="-262.495" gradientUnits="userSpaceOnUse">
<stop stop-color="#BE3C1F"/>
<stop offset="0.142857" stop-color="#BE221F"/>
</linearGradient>
<linearGradient id="paint2_linear" x1="1900.21" y1="-750.671" x2="-1044.13" y2="-128.404" gradientUnits="userSpaceOnUse">
<stop stop-color="#A3331A"/>
<stop offset="0.285714" stop-color="#A31C1A"/>
</linearGradient>
<linearGradient id="paint3_linear" x1="2005.75" y1="-485.966" x2="-886.412" y2="2.91144" gradientUnits="userSpaceOnUse">
<stop stop-color="#892B16"/>
<stop offset="0.428571" stop-color="#891816"/>
</linearGradient>
<linearGradient id="paint4_linear" x1="2098.42" y1="-251.738" x2="-714.799" y2="69.5287" gradientUnits="userSpaceOnUse">
<stop stop-color="#6E2212"/>
<stop offset="0.571429" stop-color="#6E1312"/>
</linearGradient>
<linearGradient id="paint5_linear" x1="2209.18" y1="30.8122" x2="-404.195" y2="44.0146" gradientUnits="userSpaceOnUse">
<stop stop-color="#531A0D"/>
<stop offset="0.714286" stop-color="#530E0D"/>
</linearGradient>
<linearGradient id="paint6_linear" x1="2334.94" y1="355.727" x2="453.092" y2="-171.165" gradientUnits="userSpaceOnUse">
<stop stop-color="#D92623"/>
<stop offset="0.857143" stop-color="#380A09"/>
</linearGradient>
<clipPath id="clip0">
<rect width="1513.5" height="1120.71" fill="white"/>
</clipPath>
</defs>
</svg>
