<svg width="1920" height="1080" viewBox="0 0 1920 1080" fill="none" xmlns="http://www.w3.org/2000/svg">
<path d="M1687.35 -2383.15C1588.88 -2290.62 1278.4 -1953.68 1096.55 -1827.96C914.701 -1702.23 781.256 -1743.97 596.241 -1628.81C411.227 -1513.65 205.376 -1314.24 -13.5338 -1137C-232.444 -959.761 -487.649 -651.364 -717.218 -565.366C-946.787 -479.367 -1200.56 -707.027 -1390.95 -621.009C-1581.33 -534.992 -1781.44 -144.554 -1859.53 -49.2629L-249.104 3006.61L3297.78 672.725L1687.35 -2383.15Z" fill="url(#paint0_linear)"/>
<path d="M1960.41 -1852.72C1824.86 -1752.89 1443.13 -1481.7 1147.09 -1253.73C851.05 -1025.77 497.919 -676.355 184.175 -484.909C-129.568 -293.462 -440.999 -264.445 -735.372 -105.053C-1029.75 54.338 -1440.95 375.357 -1582.07 471.439L-243.972 3010.18L3298.5 686.025L1960.41 -1852.72Z" fill="url(#paint1_linear)"/>
<path d="M2231.17 -1331.02C2134.32 -1260.72 1808.89 -994.864 1650.07 -909.263C1491.25 -823.663 1441.52 -895.7 1278.26 -817.414C1114.99 -739.128 816.606 -589.721 670.473 -439.545C524.34 -289.369 535.198 -39.6993 401.461 83.6413C267.725 206.982 86.4629 186.853 -131.945 300.498C-350.354 414.144 -712.744 651.592 -908.988 765.516C-1105.23 879.441 -1242.67 947.624 -1309.41 984.045L-240.989 3010.66L3299.59 695.602L2231.17 -1331.02Z" fill="url(#paint2_linear)"/>
<path d="M2501.96 -807.092C2431.92 -737.53 2273.54 -509.324 2081.75 -389.721C1889.96 -270.119 1581.91 -188.006 1351.2 -89.4771C1120.49 9.05137 904.792 72.4077 697.468 201.449C490.144 330.491 332.646 540.215 107.257 684.772C-118.132 829.33 -464.295 933.668 -654.865 1068.79C-845.436 1203.92 -972.614 1424.4 -1036.16 1495.52L-237.039 3011.3L3301.08 708.696L2501.96 -807.092Z" fill="url(#paint3_linear)"/>
<path d="M2772.29 -281.495C2649.33 -205.153 2271.66 -20.1871 2034.5 176.555C1797.33 373.298 1582.04 768.053 1349.31 898.959C1116.58 1029.87 861.461 851.99 638.129 961.992C414.798 1071.99 242.775 1385.16 9.32146 1558.97C-224.132 1732.79 -633.942 1930.56 -762.594 2004.88L-231.864 3012.14L3303.02 725.767L2772.29 -281.495Z" fill="url(#paint4_linear)"/>
<path d="M3041.14 243.255C2941.98 340.614 2646.58 678.293 2446.17 827.406C2245.77 976.518 2017.52 1020.82 1838.71 1137.93C1659.89 1255.04 1581.59 1437.78 1373.3 1530.05C1165 1622.32 804.478 1558.45 588.921 1691.56C373.364 1824.66 259.711 2192.07 79.9525 2328.66C-99.8061 2465.25 -394.7 2480.7 -489.631 2511.11L-225.527 3013.16L3305.25 745.311L3041.14 243.255Z" fill="url(#paint5_linear)"/>
<defs>
<linearGradient id="paint0_linear" x1="1754.2" y1="-2256.29" x2="-2153.13" y2="-732.282" gradientUnits="userSpaceOnUse">
<stop stop-color="#8C111B"/>
</linearGradient>
<linearGradient id="paint1_linear" x1="2082.78" y1="-1620.54" x2="-1834.15" y2="-224.093" gradientUnits="userSpaceOnUse">
<stop stop-color="#7A180F"/>
<stop offset="0.166667" stop-color="#7A0F18"/>
</linearGradient>
<linearGradient id="paint2_linear" x1="2283.48" y1="-1231.8" x2="-1637.89" y2="48.7784" gradientUnits="userSpaceOnUse">
<stop stop-color="#69140D"/>
<stop offset="0.333333" stop-color="#690D15"/>
</linearGradient>
<linearGradient id="paint3_linear" x1="2518.53" y1="-775.657" x2="-1398.21" y2="298.98" gradientUnits="userSpaceOnUse">
<stop stop-color="#57110B"/>
<stop offset="0.5" stop-color="#570B12"/>
</linearGradient>
<linearGradient id="paint4_linear" x1="2775.55" y1="-275.306" x2="-1079.25" y2="393.313" gradientUnits="userSpaceOnUse">
<stop stop-color="#450D08"/>
<stop offset="0.666667" stop-color="#45080D"/>
</linearGradient>
<linearGradient id="paint5_linear" x1="3022.66" y1="208.123" x2="-426.935" y2="44.3962" gradientUnits="userSpaceOnUse">
<stop stop-color="#A31C1A"/>
<stop offset="0.833333" stop-color="#330609"/>
</linearGradient>
</defs>
</svg>
