<svg width="960" height="1080" viewBox="0 0 960 1080" fill="none" xmlns="http://www.w3.org/2000/svg">
<g clip-path="url(#clip0)">
<path d="M960 0H-156V1194H960V0Z" fill="#8C1B11"/>
<path d="M1131.37 -1440.25C1072.81 -1354.91 883.796 -1054.04 780.038 -928.229C676.279 -802.415 613.143 -804.391 508.817 -685.362C404.491 -566.333 281.498 -383.735 154.082 -214.057C26.6659 -44.378 -131.752 225.058 -255.681 332.71C-379.609 440.362 -485.285 332.235 -589.487 431.857C-693.69 531.478 -832.326 847.342 -880.894 930.439L-366.642 2750.52L1645.62 379.834L1131.37 -1440.25Z" fill="url(#paint0_linear)"/>
<path d="M1221.99 -1071.38C1144.87 -974.559 928.64 -708.823 759.257 -490.476C589.874 -272.13 380.392 42.1256 205.69 238.703C30.9879 435.28 -126.981 518.597 -288.956 688.986C-450.931 859.375 -686.628 1165.7 -766.162 1261.04L-342.921 2752.53L1645.23 420.116L1221.99 -1071.38Z" fill="url(#paint1_linear)"/>
<path d="M1309.27 -729.568C1254.65 -661.764 1068.28 -413.536 981.531 -322.746C894.781 -231.956 877.026 -271.482 788.771 -184.826C700.517 -98.1699 538.619 64.5557 452.003 197.191C365.388 329.826 347.005 499.292 269.079 610.984C191.152 722.677 103.355 745.291 -15.5558 867.346C-134.467 989.402 -336.419 1225.53 -444.387 1343.32C-552.354 1461.11 -626.866 1535.62 -663.362 1574.08L-327.401 2752.53L1645.23 448.876L1309.27 -729.568Z" fill="url(#paint2_linear)"/>
<path d="M1395.73 -380.714C1354.81 -319.63 1255.59 -133.429 1150.2 -14.213C1044.82 105.003 885.905 221.915 763.399 334.581C640.894 447.248 529.07 533.083 415.171 661.786C301.273 790.489 204.232 963.985 80.007 1106.8C-44.2183 1249.61 -223.932 1389.17 -330.18 1518.67C-436.429 1648.16 -519.602 1822.92 -557.486 1883.77L-307.981 2752.53L1645.23 488.044L1395.73 -380.714Z" fill="url(#paint3_linear)"/>
<path d="M1480.83 -26.2668C1413.98 48.5878 1213.26 245.568 1079.73 422.861C946.203 600.153 804.916 904.849 679.655 1037.49C554.395 1170.13 446.924 1101.8 328.171 1218.7C209.418 1335.6 96.7361 1577.56 -32.8615 1738.87C-162.459 1900.19 -379.99 2111.99 -449.415 2186.61L-285.017 2752.53L1645.23 539.654L1480.83 -26.2668Z" fill="url(#paint4_linear)"/>
<path d="M1564.04 325.948C1507.43 408.227 1334.42 684.263 1224.36 819.617C1114.3 954.971 1000.43 1027.65 903.683 1138.07C806.939 1248.5 752.559 1382.19 643.897 1482.16C535.236 1582.14 367.601 1610.05 251.714 1737.93C135.828 1865.81 47.5576 2126.17 -51.4229 2249.42C-150.403 2372.68 -293.711 2439.45 -342.168 2477.45L-260.979 2752.53L1645.23 601.024L1564.04 325.948Z" fill="url(#paint5_linear)"/>
</g>
<defs>
<linearGradient id="paint0_linear" x1="1152.72" y1="-1364.69" x2="-1201.28" y2="-989.81" gradientUnits="userSpaceOnUse">
<stop stop-color="#8C111B"/>
</linearGradient>
<linearGradient id="paint1_linear" x1="1260.7" y1="-934.972" x2="-1017.5" y2="-635.677" gradientUnits="userSpaceOnUse">
<stop stop-color="#7A180F"/>
<stop offset="0.166667" stop-color="#7A0F18"/>
</linearGradient>
<linearGradient id="paint2_linear" x1="1325.72" y1="-671.876" x2="-890.049" y2="-435.003" gradientUnits="userSpaceOnUse">
<stop stop-color="#69140D"/>
<stop offset="0.333333" stop-color="#690D15"/>
</linearGradient>
<linearGradient id="paint3_linear" x1="1400.9" y1="-362.697" x2="-711.575" y2="-225.394" gradientUnits="userSpaceOnUse">
<stop stop-color="#57110B"/>
<stop offset="0.5" stop-color="#570B12"/>
</linearGradient>
<linearGradient id="paint4_linear" x1="1481.84" y1="-22.7893" x2="-437.028" y2="-48.8258" gradientUnits="userSpaceOnUse">
<stop stop-color="#450D08"/>
<stop offset="0.666667" stop-color="#45080D"/>
</linearGradient>
<linearGradient id="paint5_linear" x1="1558.36" y1="306.699" x2="55.4947" y2="45.8697" gradientUnits="userSpaceOnUse">
<stop stop-color="#A31C1A"/>
<stop offset="0.833333" stop-color="#330609"/>
</linearGradient>
<clipPath id="clip0">
<rect width="1116" height="1194" fill="white" transform="translate(-156)"/>
</clipPath>
</defs>
</svg>
